<svg width="315" height="921" viewBox="0 0 315 921" fill="none" xmlns="http://www.w3.org/2000/svg">
<path opacity="0.12" d="M314.419 468.221C319.705 375.39 288.519 283.09 237.775 205.112C194.961 138.804 124.131 43.8515 48.5449 12.5543C-46.5988 -26.7 -134.871 37.486 -226.843 50.2171C-309.301 61.3568 -394.402 25.8158 -474.746 47.0343C-532.36 61.8873 -579.932 105.916 -608.475 157.901C-637.547 209.886 -649.176 270.359 -652.876 329.771C-659.747 444.881 -634.904 561.583 -584.161 664.492C-558.789 715.947 -523.375 756.262 -491.66 803.474C-459.417 851.215 -437.217 892.061 -378.545 911.688C-326.216 929.193 -266.487 921.767 -220.5 891.53C-179.271 864.477 -150.2 822.04 -110.028 793.395C-36.0273 740.879 62.8165 745.653 146.332 718.6C254.161 683.589 308.076 576.966 314.419 468.221Z" fill="url(#paint0_linear_229_16)"/>
<defs>
<linearGradient id="paint0_linear_229_16" x1="315" y1="921" x2="-751.043" y2="130.943" gradientUnits="userSpaceOnUse">
<stop stop-color="white" stop-opacity="0"/>
<stop offset="1" stop-color="#E2E2E2"/>
</linearGradient>
</defs>
</svg>
