<svg width="894" height="1052" viewBox="0 0 894 1052" fill="none" xmlns="http://www.w3.org/2000/svg">
<path opacity="0.12" d="M1239.78 137.761C1167.53 -50.7268 890.447 -40.6405 810.652 136.5C786.776 190.714 781.75 254.384 742.167 298.512C689.389 357.138 595.771 355.878 521.631 330.031C446.863 304.185 379.634 258.797 302.353 243.037C167.267 215.3 55.4286 333.183 17.102 453.589C-24.3662 585.972 12.0755 737.266 99.41 845.694C186.116 954.122 318.06 1021.57 454.403 1043.64C607.081 1068.85 773.582 1037.96 892.332 938.362C957.675 883.518 1005.43 807.871 1026.79 725.289C1043.75 659.728 1031.82 587.233 1053.18 523.563C1075.17 456.741 1143.65 430.264 1187.01 381.724C1237.9 325.619 1264.92 248.08 1249.84 172.433C1247.32 160.455 1244.18 149.108 1239.78 137.761Z" fill="url(#paint0_linear_229_18)"/>
<defs>
<linearGradient id="paint0_linear_229_18" x1="0" y1="1052" x2="1253.54" y2="-0.544793" gradientUnits="userSpaceOnUse">
<stop stop-color="white" stop-opacity="0"/>
<stop offset="1" stop-color="#E2E2E2"/>
</linearGradient>
</defs>
</svg>
