<svg width="230" height="42" viewBox="0 0 230 42" fill="none" xmlns="http://www.w3.org/2000/svg">
<path d="M0 7C0 3.13401 3.13401 0 7 0H35C38.866 0 42 3.13401 42 7V35C42 38.866 38.866 42 35 42H7C3.13401 42 0 38.866 0 35V7Z" fill="#CFFF46"/>
<path fill-rule="evenodd" clip-rule="evenodd" d="M13.2137 17.6307C13.3547 17.5946 13.7505 17.6042 14.2052 17.9315C14.443 18.1028 14.6025 18.3605 14.7625 18.6191C14.9848 18.9782 15.2082 19.3391 15.644 19.472C16.0803 19.6051 17.438 19.3347 18.5946 19.1043C19.4254 18.9387 20.1525 18.7939 20.3597 18.8342C20.7563 18.9112 21.3875 19.4039 21.6535 19.6405C21.6253 19.7529 21.5858 19.9896 21.6535 20.0377C21.6869 20.0615 21.7392 20.0213 21.8023 19.973C21.8987 19.899 22.0201 19.8059 22.1371 19.8933C22.2523 19.9792 22.1533 20.3338 22.072 20.6245C22.0168 20.8223 21.9698 20.9905 22.0041 21.0246C22.0492 21.0695 22.2177 20.9062 22.389 20.7401C22.5395 20.5942 22.6924 20.4461 22.7659 20.4348C22.9231 20.4108 22.9593 20.5312 22.9715 20.6154C22.9766 20.6511 22.9275 20.745 22.8747 20.846C22.8028 20.9836 22.724 21.1343 22.7659 21.169C22.8071 21.2033 22.958 21.0934 23.0938 20.9945C23.1966 20.9195 23.2908 20.8509 23.3221 20.8561C23.3947 20.8681 23.6606 21.1209 23.6727 21.2171C23.677 21.2512 23.6345 21.3663 23.5836 21.5041V21.5042C23.4904 21.7565 23.3691 22.0852 23.4551 22.1318C23.5276 22.1712 23.7259 21.9816 23.9149 21.801C24.0724 21.6504 24.2234 21.506 24.2894 21.506C24.4345 21.506 24.4587 21.5902 24.4587 21.6986C24.4587 21.7361 24.4311 21.8516 24.3976 21.992C24.3344 22.257 24.2498 22.6109 24.2894 22.6975C24.3499 22.8299 24.7489 22.5531 24.8819 22.3966C24.9883 22.2714 25.0633 21.9513 25.0874 21.8068H25.6316C25.6235 21.9313 25.5807 22.3099 25.4744 22.8299C25.4037 23.1751 25.316 23.4117 25.2565 23.5721C25.204 23.7136 25.1736 23.7957 25.1963 23.8409C25.2446 23.9371 25.6799 23.7084 26.1031 23.1548C26.3217 22.8689 26.3983 22.6054 26.453 22.4175C26.5042 22.2416 26.5361 22.1318 26.6472 22.1318C26.7872 22.1318 26.815 22.2704 26.8536 22.4629C26.8783 22.5864 26.9076 22.7322 26.9737 22.878C27.143 23.2511 27.276 23.4918 27.3727 23.4557C27.4033 23.4443 27.4555 23.3716 27.5207 23.281C27.662 23.0846 27.864 22.8039 28.0377 22.878C28.2916 22.9863 28.3037 23.8288 28.2191 24.0093C28.1345 24.1899 28.872 23.8649 29.1139 23.227C29.3074 22.7168 29.3234 22.2843 29.3074 22.1318C29.3759 22.0717 29.5298 21.9585 29.5975 21.9874C29.6652 22.0163 29.658 22.6814 29.6459 23.0104C29.6701 23.0224 29.7306 23.0296 29.7789 22.9622C29.8394 22.878 29.7426 23.4437 29.6459 23.564C29.5492 23.6844 30.2142 23.4918 30.4439 22.9622C30.6277 22.5386 30.6011 22.1599 30.5648 22.0235C30.6414 21.9874 30.8091 21.9368 30.8671 22.0235C30.9397 22.1318 31.0364 22.4207 31.0727 22.878C31.0909 23.1077 31.0756 23.3556 31.0634 23.5515V23.5516C31.0514 23.7458 31.0426 23.8891 31.0727 23.913C31.1331 23.9612 31.7135 23.4798 31.8103 22.9622C31.8876 22.5483 31.8425 22.1639 31.8103 22.0235H31.9554C31.9876 22.0717 32.0496 22.1872 32.04 22.2642C32.0279 22.3605 32.1488 22.2401 32.1851 22.1318L32.2335 21.9874H32.3544C32.3745 22.1037 32.3883 22.4038 32.2818 22.6734C32.3342 22.6814 32.4825 22.6373 32.6567 22.3966C32.7859 22.218 32.8299 22.152 32.839 22.1348C32.851 22.1727 32.8663 22.2614 32.838 22.3364C32.8018 22.4327 33.0677 22.3605 33.1524 22.0235C33.2201 21.7539 33.1806 21.6143 33.1524 21.5782C33.5071 21.2813 34.1657 20.613 33.9625 20.3145C33.7086 19.9414 32.7171 20.0016 32.4148 20.0738C32.368 20.085 32.2716 20.1158 32.1336 20.1599C31.3807 20.4005 29.3905 21.0366 27.4695 21.0366C25.3557 21.0366 24.4651 20.5684 23.6409 20.1349L23.6408 20.1349C23.5787 20.1022 23.517 20.0698 23.4551 20.0377C22.7489 19.6718 21.8792 18.8663 21.5325 18.5092C22.0323 18.9224 23.5059 19.8716 25.3051 20.3145C27.4321 20.8381 28.6722 20.5758 30.0177 20.2913C30.0949 20.275 30.1724 20.2586 30.2505 20.2423C30.9224 20.1018 31.4123 19.9429 31.8078 19.8147C32.2592 19.6684 32.5875 19.5619 32.9226 19.5683C33.4257 19.5779 33.8255 19.7167 33.9625 19.785C33.9746 18.6657 33.8223 16.2394 33.1161 15.4884C32.8066 15.161 32.181 15.0792 31.907 15.0792C31.5886 14.7663 30.8768 14.1043 30.577 13.9599C30.2771 13.8155 30.0006 13.8275 29.8998 13.8516C29.6822 13.643 29.1623 13.18 28.8236 12.9971C28.4851 12.8142 28.0619 12.7443 27.8927 12.7323C27.7153 12.5397 27.2735 12.1474 26.9253 12.1185C26.718 12.1013 26.4889 12.1987 26.2651 12.2938C26.019 12.3984 25.7796 12.5002 25.5832 12.4435C25.3722 12.3825 25.2761 12.1919 25.185 12.0112C25.1143 11.8708 25.0465 11.7363 24.9302 11.6732C24.8169 11.6117 24.4952 11.6528 24.0836 11.7054C23.5291 11.7763 22.8117 11.868 22.2218 11.7575C21.194 11.5649 20.3113 11.1316 19.6826 10.6743C19.3699 10.4468 19.1259 10.1925 18.9344 9.99291C18.7409 9.7912 18.5297 9.73046 18.4264 9.72441C17.6552 9.67927 17.3763 10.0564 16.9571 10.2971C16.55 10.2851 15.7166 10.3493 15.3297 10.4938C15.1155 10.5737 15.0222 10.6819 14.9082 10.8143C14.7647 10.9809 14.5882 11.1857 14.0963 11.4205C13.8334 11.546 13.6144 11.6426 13.4248 11.7263C12.9778 11.9236 12.6935 12.0491 12.3794 12.3111C12.1597 12.4943 11.9896 12.9009 11.7301 13.5211C11.4612 14.1638 11.0964 15.0359 10.481 16.1262C10.0267 16.9311 9.58262 17.6817 9.19755 18.3326C8.55773 19.4139 8.08075 20.2201 7.99017 20.5432C7.9052 20.8462 7.95293 21.1411 7.99735 21.4155C8.02879 21.6098 8.05858 21.7937 8.03854 21.9633C8.02992 22.0363 8.01514 22.1341 7.9975 22.2509L7.99749 22.251C7.91622 22.7891 7.77423 23.7293 7.89344 24.4907C8.03854 25.4175 9.45324 28.5947 9.87644 28.7031C10.1091 28.7626 11.018 28.673 11.8776 28.5882C12.5814 28.5189 13.2523 28.4527 13.4918 28.4744C13.7399 28.4969 14.0012 28.5743 14.2585 28.6506C14.5528 28.7378 14.8418 28.8234 15.0999 28.8234C15.5836 28.8234 15.8859 28.4503 15.8012 28.3661C15.7839 28.3489 15.7349 28.3185 15.6587 28.2712C15.3613 28.0866 14.6493 27.6448 13.7941 26.7293C13.1532 26.0433 12.6776 24.9922 12.6333 24.7194C12.327 25.0444 11.5305 25.6798 10.7954 25.6221C10.1743 25.5732 10.0172 25.3045 9.90962 25.1206C9.85805 25.0324 9.81789 24.9637 9.74343 24.948C9.66457 24.9315 9.58143 24.9547 9.49207 24.9797C9.3211 25.0273 9.12732 25.0814 8.89703 24.8759C8.61651 24.6255 8.72372 23.889 8.81239 23.552C8.81239 23.8207 8.89219 24.3848 9.21141 24.4907C9.42331 24.561 9.56701 24.5261 9.69865 24.4941C9.81489 24.4659 9.92172 24.4399 10.0578 24.4907C10.1901 24.5401 10.2922 24.6595 10.3928 24.7771C10.5129 24.9175 10.6309 25.0553 10.7954 25.0684C11.0372 25.0877 11.9642 24.4506 12.4156 24.0936C12.331 23.9452 12.2052 23.4292 12.1375 22.9863C12.0698 22.5435 12.1335 21.9553 12.1859 21.6986C12.2048 21.7744 12.2248 21.8559 12.2461 21.9423L12.2461 21.9425C12.4653 22.8338 12.8118 24.2428 13.3104 25.2851C13.881 26.4777 14.8394 27.2052 15.5692 27.7592C15.7231 27.876 15.8669 27.9852 15.9947 28.0893C16.301 28.0853 17.17 28.1663 18.1953 28.5226C19.1528 28.8552 20.6365 29.6915 21.6787 30.279C22.0318 30.478 22.3341 30.6485 22.5483 30.7611C23.3947 31.2064 25.753 32.3133 26.357 32.2775C27.1792 32.2288 27.843 31.5228 28.3803 30.9514C28.5067 30.8169 28.6262 30.6898 28.7391 30.5805C28.2393 30.5324 26.8552 30.2147 25.3172 29.3289C24.1201 28.6394 22.3041 26.7554 20.9611 25.3621C20.1473 24.5177 19.5071 23.8535 19.2835 23.7445C18.9081 23.5615 18.0421 23.5621 17.3351 23.5626C16.9265 23.5629 16.5709 23.5632 16.3937 23.5279C15.91 23.4317 15.4264 23.0586 15.1724 22.4929C15.0599 22.2421 14.8805 21.6605 14.6821 21.0172C14.433 20.2095 14.1539 19.3044 13.9392 18.8342C13.6825 18.2721 13.4601 17.9752 13.3277 17.7985C13.273 17.7254 13.2337 17.6729 13.2137 17.6307ZM14.6888 19.3035C14.9266 20.1942 15.4723 22.1607 15.9463 22.6614C16.2802 23.0141 17.0789 23.0342 17.8466 23.0535C18.4411 23.0685 19.0168 23.083 19.344 23.2511C19.6673 23.4172 20.2903 24.0715 21.0754 24.8961C22.111 25.9836 23.4286 27.3673 24.7126 28.318C26.1756 29.4011 27.9531 30.1473 28.9446 30.2677C29.0172 30.1513 29.1405 29.8344 29.0534 29.4974C28.9663 29.1604 28.6463 28.9478 28.4972 28.8836C28.465 28.8395 28.3884 28.7777 28.34 28.8836C28.2916 28.9895 28.1667 29.016 28.1103 29.016C28.1103 28.9598 28.0885 28.8451 28.0015 28.8354C27.9144 28.8258 27.7314 29.0641 27.6508 29.1845C27.6387 29.2085 27.6025 29.2495 27.5541 29.2206C27.5291 29.2056 27.502 29.1022 27.4711 28.9843C27.4274 28.8171 27.3761 28.6209 27.3122 28.6068C27.2526 28.5936 27.1201 28.7903 27.0027 28.9648C26.9061 29.1084 26.8196 29.2369 26.7923 29.2206C26.7553 29.1984 26.7545 28.9233 26.754 28.7081V28.708C26.7536 28.5718 26.7533 28.4596 26.7439 28.4503C26.7347 28.4411 26.6863 28.5097 26.6261 28.595L26.6261 28.5951C26.5293 28.7324 26.4018 28.9133 26.357 28.8836C26.3194 28.8586 26.2884 28.6303 26.2587 28.4127C26.2312 28.2101 26.2048 28.0166 26.1756 28.005C26.1466 27.9934 26.1007 28.0765 26.0529 28.1633C26.0012 28.2568 25.9473 28.3545 25.9097 28.342C25.8697 28.3287 25.8701 28.0384 25.8704 27.7739C25.8707 27.558 25.8709 27.3593 25.8492 27.3431C25.8259 27.3257 25.7157 27.4702 25.6009 27.6206C25.4774 27.7826 25.3485 27.9515 25.3172 27.9328C25.2907 27.917 25.2689 27.742 25.2446 27.5472C25.2133 27.2971 25.1781 27.0144 25.1237 26.9941C25.0834 26.979 25.0033 27.1081 24.9103 27.2577C24.7802 27.4673 24.6249 27.7172 24.5191 27.668C24.408 27.6164 24.374 27.2482 24.3477 26.9627C24.3311 26.7823 24.3175 26.6349 24.2894 26.621C24.258 26.6054 24.1814 26.6933 24.0977 26.7894C23.9879 26.9155 23.8658 27.0555 23.8178 26.9941C23.7696 26.9324 23.7685 26.7421 23.7675 26.5806C23.7668 26.4584 23.7661 26.3528 23.7453 26.3321C23.7235 26.3104 23.6625 26.3767 23.5964 26.4483C23.5159 26.5357 23.4279 26.6311 23.3947 26.5849C23.3641 26.5422 23.3799 26.2962 23.3952 26.0588C23.4101 25.8272 23.4245 25.6038 23.3947 25.586C23.3696 25.571 23.2847 25.6919 23.1869 25.831C23.048 26.0286 22.8831 26.2633 22.8263 26.1998C22.7729 26.1399 22.8155 25.7675 22.854 25.4301C22.8853 25.157 22.9139 24.9069 22.8868 24.8638C22.8537 24.811 22.7988 24.8522 22.7479 24.8903C22.706 24.9218 22.6668 24.9512 22.645 24.924C22.6218 24.8952 22.6347 24.7505 22.6478 24.6036C22.662 24.4435 22.6765 24.2809 22.645 24.2621C22.6164 24.245 22.4608 24.4054 22.2984 24.573C22.1171 24.7599 21.9271 24.9558 21.8953 24.924C21.8612 24.8901 21.8694 24.7262 21.8765 24.5832C21.8821 24.4724 21.8869 24.3741 21.8711 24.3583C21.8558 24.3431 21.791 24.3729 21.7148 24.4078C21.6104 24.4558 21.4848 24.5135 21.4358 24.4787C21.3904 24.4464 21.4112 24.331 21.4307 24.2217C21.4477 24.1272 21.4638 24.0372 21.4358 24.0093C21.4072 23.9808 21.3296 23.9955 21.2469 24.0113C21.1552 24.0287 21.0572 24.0473 21.0126 24.0093C20.9648 23.9685 20.9864 23.7859 21.0056 23.6237C21.0204 23.4986 21.0337 23.3856 21.0126 23.3594C20.9887 23.3297 20.9147 23.3763 20.8414 23.4225C20.7665 23.4697 20.6924 23.5163 20.6741 23.4798C20.6573 23.4464 20.6561 23.315 20.6548 23.1787C20.6532 23.0205 20.6517 22.8558 20.6257 22.8299C20.609 22.8133 20.5809 22.8524 20.5403 22.9088C20.463 23.0162 20.3406 23.1864 20.1662 23.1548C20.0236 23.1291 19.9644 23.0618 19.903 22.9919C19.8497 22.9314 19.7948 22.869 19.6826 22.8299C19.4891 22.7625 19.215 22.8018 19.1022 22.8299C19.0458 22.6694 18.9135 22.1799 18.8362 21.506C18.7394 20.6635 18.7636 20.2062 18.7999 20.1581C18.8289 20.1195 19.8519 19.5643 20.3597 19.2915C19.2674 19.6205 17.228 20.2062 15.7892 20.0377C15.3494 19.9862 14.7855 19.4841 14.6888 19.3035ZM19.1022 21.6986C19.1183 21.7908 19.1626 22.0211 19.211 22.204C19.2594 22.387 19.3198 22.521 19.344 22.5651C19.4327 22.5531 19.6366 22.5435 19.743 22.6012C19.8494 22.659 20.0453 22.8178 20.1299 22.8901C20.2587 22.8595 20.3545 22.7708 20.4328 22.6983C20.5089 22.6279 20.5685 22.5728 20.6257 22.6012C20.7951 22.6855 20.8155 22.8657 20.8323 23.0141C20.8383 23.067 20.8438 23.1158 20.8555 23.1548C20.932 23.1388 21.148 23.0947 21.2061 23.1909C21.2641 23.2872 21.2787 23.6402 21.2787 23.8047C21.3633 23.7967 21.5398 23.7927 21.5688 23.8409C21.5978 23.889 21.6131 24.0695 21.6172 24.1537C21.7341 24.1176 21.9775 24.0671 22.0162 24.1537C22.0549 24.2404 22.0968 24.3263 22.1129 24.3583C22.258 24.2219 22.5821 23.9612 22.7175 24.0093C22.8529 24.0575 22.8868 24.4466 22.8868 24.6352C22.915 24.6111 22.9859 24.5774 23.044 24.6352C23.084 24.6749 23.0688 24.9896 23.0556 25.2654C23.0496 25.3898 23.044 25.5061 23.044 25.586C23.1004 25.5177 23.3197 25.2875 23.4551 25.3452C23.5905 25.403 23.6002 25.8828 23.5881 26.1155C23.6405 26.0874 23.767 26.0481 23.8541 26.1155C23.9411 26.1829 23.979 26.3763 23.9871 26.4645C24.1201 26.1155 24.1201 25.3645 23.7816 24.4306C23.6296 24.0113 23.3952 23.7878 23.1616 23.5649C23.005 23.4155 22.8486 23.2663 22.7175 23.0586C22.5894 22.8555 22.535 22.7121 22.4887 22.59C22.417 22.4011 22.3649 22.2636 22.0888 22.0355C21.6917 21.7076 21.0525 21.8556 20.5921 21.9622C20.3936 22.0082 20.2283 22.0464 20.1299 22.0355C19.9292 22.0133 19.7511 21.7908 19.6826 21.6986H19.1022ZM24.2894 25.8988C24.1636 25.3501 24.1161 24.8037 24.1685 24.5991C24.2862 24.6225 24.302 24.7524 24.3152 24.8605C24.3223 24.9189 24.3286 24.9709 24.3499 24.9962C24.3675 25.0173 24.4418 24.9258 24.524 24.8245C24.6258 24.6993 24.7396 24.5591 24.7731 24.5991C24.8214 24.6568 24.7932 25.0163 24.7731 25.1888C24.8093 25.1687 24.8916 25.1406 24.9302 25.1888C24.9519 25.2158 24.9542 25.3494 24.9566 25.4939C24.9596 25.6715 24.9628 25.8657 25.0028 25.8988C25.0387 25.9287 25.1161 25.808 25.1954 25.6843C25.2763 25.5583 25.3591 25.4292 25.4018 25.4536C25.4457 25.4785 25.4343 25.6783 25.4233 25.8715C25.413 26.0509 25.4032 26.2247 25.4381 26.2479C25.4765 26.2734 25.5286 26.2481 25.578 26.2242C25.6219 26.203 25.6636 26.1828 25.692 26.1998C25.7223 26.2178 25.7252 26.3718 25.7283 26.5286C25.7313 26.6848 25.7344 26.8437 25.7646 26.8737C25.7929 26.9019 25.8925 26.8141 25.9994 26.7201C26.1209 26.6132 26.2515 26.4983 26.2966 26.5367C26.3351 26.5696 26.3511 26.7194 26.3684 26.882C26.3892 27.077 26.412 27.2906 26.478 27.3431C26.541 27.3933 26.6371 27.2337 26.7318 27.0764C26.8184 26.9325 26.9038 26.7905 26.9616 26.8135C27.0206 26.837 27.022 26.9839 27.0235 27.135C27.0249 27.2935 27.0266 27.4567 27.0946 27.4875C27.1674 27.5205 27.3274 27.3512 27.4691 27.2012C27.586 27.0775 27.6905 26.9668 27.7233 26.9941C27.7814 27.0422 27.7476 27.5999 27.7233 27.8726C27.7677 27.8566 27.8684 27.8462 27.9168 27.9328C27.9451 27.9834 27.9311 28.0261 27.9193 28.0623C27.9058 28.1034 27.8951 28.1358 27.9531 28.1615C28.004 28.184 28.0417 28.1854 28.076 28.1868C28.1151 28.1883 28.1498 28.1896 28.1949 28.2216C28.2298 28.2464 28.2421 28.2794 28.2521 28.3062C28.2664 28.3445 28.276 28.3703 28.34 28.342C28.427 28.3035 28.5052 28.326 28.5335 28.342C28.5214 28.4062 28.4803 28.5394 28.4126 28.5587C28.3724 28.57 28.3676 28.6004 28.3621 28.6356C28.356 28.6747 28.3489 28.7196 28.2916 28.7512C28.2046 28.7993 28.1667 28.7712 28.1586 28.7512C28.1546 28.7151 28.1272 28.6357 28.0498 28.6068C27.9725 28.5779 27.7999 28.6188 27.7233 28.6429C27.6669 28.5346 27.5178 28.318 27.3727 28.318C27.2276 28.318 27.0382 28.4062 26.9616 28.4503C26.9576 28.3741 26.9278 28.2096 26.8407 28.1615C26.7536 28.1133 26.611 28.1815 26.5505 28.2216C26.486 28.0531 26.3449 27.7354 26.2966 27.668C26.2482 27.6006 26.1958 27.6038 26.1756 27.6319C26.1618 27.5806 26.1517 27.5092 26.1411 27.4342C26.1176 27.2687 26.0917 27.0862 26.0185 27.0663C25.9121 27.0374 25.6154 27.2508 25.5348 27.3431C25.5026 27.1385 25.4066 26.7149 25.2809 26.6571C25.1785 26.6101 25.0077 26.7327 24.8847 26.821H24.8847C24.8566 26.8412 24.8311 26.8596 24.8093 26.8737C24.7005 26.7975 24.4152 26.4477 24.2894 25.8988ZM17.496 10.7019C17.4974 10.8179 17.499 10.9392 17.5786 11.0474C17.6619 11.1603 17.816 11.1414 17.9405 11.1261C18.0151 11.1169 18.079 11.1091 18.1107 11.1316C18.1443 11.1556 18.1819 11.2157 18.2277 11.2893C18.2972 11.4006 18.3859 11.5429 18.5097 11.6371C18.6742 11.7623 18.9974 11.946 19.1384 12.0222C19.105 12.0302 19.0681 12.0385 19.0287 12.0473L19.0285 12.0474C18.7498 12.11 18.3437 12.2012 18.1107 12.4074C17.621 12.8406 17.5303 13.1776 17.4698 13.5146C17.7359 13.1656 18.2703 12.6673 18.6185 12.5518C19.0538 12.4074 19.1989 12.4314 19.3682 12.5518C19.4081 12.5801 19.4962 12.6846 19.617 12.8277C20.0091 13.2923 20.7454 14.1645 21.2907 14.1645C21.709 14.1645 21.8196 14.0859 21.9249 14.0112C21.9993 13.9584 22.0708 13.9076 22.2459 13.8877C22.3663 13.874 22.4242 13.9192 22.4801 13.963C22.5421 14.0115 22.6018 14.0581 22.7417 14.0201C22.8614 13.9876 22.9321 13.9405 22.9935 13.8996C23.0686 13.8496 23.1298 13.8089 23.2495 13.8155C23.3558 13.8214 23.39 13.8703 23.4239 13.9188C23.4595 13.9697 23.4948 14.0201 23.6123 14.0201C23.7223 14.0201 23.7796 13.9787 23.8321 13.9408C23.8892 13.8996 23.9404 13.8626 24.0475 13.8877C24.1339 13.9079 24.1755 13.9557 24.2224 14.0098C24.2872 14.0844 24.3622 14.1708 24.5796 14.2127C24.7786 14.251 24.8549 14.2215 24.9297 14.1926C24.9958 14.167 25.0608 14.1419 25.2083 14.1645C25.3825 14.1912 25.4342 14.2548 25.4827 14.3144C25.5217 14.3624 25.5587 14.4078 25.6557 14.4293C25.7476 14.4496 25.8717 14.4463 25.9982 14.443C26.1714 14.4385 26.3489 14.4338 26.4537 14.4895C26.5367 14.5335 26.6247 14.5901 26.7304 14.6581C26.8559 14.7389 27.0065 14.8357 27.2034 14.9468C27.4936 15.1105 27.8241 15.1995 27.9531 15.2236C27.7274 14.9709 27.1817 14.4148 26.8044 14.2127C26.5108 14.0553 26.4093 14.0145 26.3162 13.9772C26.2598 13.9545 26.2064 13.9331 26.1152 13.8877C25.9961 13.8284 25.9649 13.7779 25.9366 13.7318C25.9074 13.6843 25.8811 13.6416 25.7646 13.5988C25.5456 13.5186 24.8653 13.5148 24.8334 13.5146L24.8322 13.5146H24.8335C24.8698 13.5146 24.7489 13.2739 24.3619 13.1054C24.0524 12.9706 23.6123 12.9931 23.4309 13.0212C23.4067 12.9048 23.2882 12.6649 23.0077 12.636C22.7272 12.6071 22.4152 12.7604 22.2943 12.8406C22.2016 12.7443 21.9291 12.5518 21.5809 12.5518C21.2327 12.5518 20.9199 12.7042 20.8071 12.7805C20.271 12.1466 19.124 10.8259 18.8241 10.6141C18.5242 10.4023 17.8877 10.2118 17.4698 10.4817C17.494 10.5492 17.495 10.6244 17.496 10.7019ZM13.2983 15.7772C13.3588 15.7612 13.6127 15.5125 13.6127 15.1514C13.6127 15.105 13.6051 15.005 13.5948 14.8693L13.5948 14.8692V14.8692L13.5948 14.8691C13.5499 14.2786 13.4538 13.0139 13.7094 12.5638C13.9371 12.1629 14.786 11.8378 15.3656 11.6158C15.5865 11.5312 15.7682 11.4616 15.8617 11.4084C16.1326 11.2544 16.3453 11.1356 16.4179 11.0955C16.3897 11.1998 16.2293 11.4855 15.8133 11.7936C15.6581 11.9086 15.4888 12.0118 15.3184 12.1157C14.9181 12.3597 14.5116 12.6075 14.2656 13.0212C14.1393 13.2336 14.146 13.6637 14.153 14.1088C14.1605 14.5868 14.1682 15.0822 14.0117 15.344C13.7699 15.7483 13.4353 15.8013 13.2983 15.7772ZM19.3682 14.4895C18.546 14.3547 18.3243 13.9118 18.3162 13.7072C18.3767 13.2498 18.8096 13.1343 19.2835 13.2498C19.7575 13.3654 20.0453 13.9398 20.1541 14.2127C20.2186 14.3611 20.1904 14.6243 19.3682 14.4895ZM29.6459 15.9818C29.658 16.1383 30.0087 16.6197 30.4681 16.8604C30.5714 16.9145 30.679 16.9674 30.7855 17.0198V17.0198H30.7857C31.1528 17.2004 31.507 17.3746 31.6289 17.5705C31.6621 17.624 31.69 17.6705 31.7139 17.7104C31.803 17.8591 31.8377 17.917 31.8949 17.9074C31.9674 17.8954 31.9312 17.2335 31.4354 16.6077C31.0388 16.107 30.0772 15.9818 29.6459 15.9818ZM32.3786 16.4031C31.9917 16.0179 31.7619 15.6208 31.7981 15.4523C32.0843 15.4763 32.722 15.6809 32.9832 16.3068C33.2443 16.9326 33.092 17.3779 32.9832 17.5223C32.9832 17.4501 32.9686 17.2672 32.9106 17.1131C32.838 16.9205 32.7655 16.7882 32.3786 16.4031ZM8.35292 22.7456C8.5222 22.6333 8.88011 22.3629 8.95749 22.18C9.00107 22.0769 8.97347 21.9959 8.94436 21.9104C8.90887 21.8062 8.87112 21.6954 8.95749 21.5301C9.11467 21.2292 10.0457 20.5552 10.215 20.5432C10.2284 20.5422 10.2418 20.5414 10.2554 20.5406C10.4129 20.5312 10.58 20.5213 10.747 20.2664C10.7995 20.1863 10.8838 19.9636 10.9871 19.6905C11.1692 19.2097 11.4104 18.5722 11.6418 18.2805C11.932 17.9147 12.3108 17.6708 12.464 17.5946C12.4882 17.7028 12.4132 17.9797 12.3552 18.1241C12.3264 18.1957 12.1759 18.4851 11.9949 18.833H11.9949L11.9949 18.833C11.7196 19.3622 11.3739 20.0267 11.279 20.2664C11.2344 20.3793 11.2083 20.461 11.1879 20.5247C11.1367 20.6849 11.1222 20.7303 10.9405 20.8681C10.7797 20.99 10.6868 20.999 10.585 21.0087C10.526 21.0143 10.4641 21.0203 10.3843 21.0486C10.0457 21.169 9.47742 21.6625 9.41696 21.8068C9.39123 21.8683 9.39836 21.9778 9.4057 22.0907C9.41562 22.243 9.42595 22.4015 9.3565 22.4568C8.99376 22.7456 8.6673 22.7456 8.35292 22.7456Z" fill="#121212"/>
<path d="M19.7157 13.7578C19.7583 13.9991 19.6306 14.2231 19.4304 14.2581C19.2302 14.2932 19.0333 14.1261 18.9906 13.8848C18.948 13.6436 19.0757 13.4196 19.2759 13.3845C19.4761 13.3495 19.673 13.5166 19.7157 13.7578Z" fill="#121212"/>
<path d="M66.4876 30.2902H58V11.6819H66.4592C69.525 11.6819 72.023 12.5095 73.9533 14.1649C75.8836 15.8016 76.8488 18.0707 76.8488 20.9721C76.8488 23.8735 75.8836 26.1519 73.9533 27.8072C72.023 29.4626 69.5345 30.2902 66.4876 30.2902ZM66.4592 25.3801C67.8407 25.3801 68.9478 24.9523 69.7805 24.0967C70.6132 23.2412 71.0295 22.1996 71.0295 20.9721C71.0295 19.6516 70.6415 18.5914 69.8656 17.7917C69.0897 16.9919 67.9637 16.592 66.4876 16.592H63.7341V25.3801H66.4592Z" fill="#1D1D1D"/>
<path d="M84.636 30.2902H78.9019V11.6819H84.636V30.2902Z" fill="#1D1D1D"/>
<path d="M97.0856 30.625C94.1334 30.625 91.6543 29.7508 89.6483 28.0025C87.6612 26.2356 86.6677 23.9014 86.6677 21C86.6677 18.0985 87.6612 15.7737 89.6483 14.0254C91.6543 12.2585 94.1334 11.375 97.0856 11.375C99.1673 11.375 100.899 11.84 102.28 12.7699C103.681 13.6999 104.722 14.853 105.403 16.2293L100.577 18.6565C100.274 18.0242 99.8107 17.4848 99.1862 17.0384C98.5806 16.5734 97.8804 16.3409 97.0856 16.3409C95.7231 16.3409 94.616 16.7873 93.7644 17.6801C92.9128 18.5728 92.487 19.6795 92.487 21C92.487 22.3205 92.9128 23.4272 93.7644 24.3199C94.616 25.2127 95.7231 25.6591 97.0856 25.6591C97.6155 25.6591 98.1643 25.5754 98.732 25.408C99.2998 25.2406 99.735 25.0453 100.038 24.8221V24.1525H96.5179V19.2424H105.744V26.8587C103.435 29.3696 100.549 30.625 97.0856 30.625Z" fill="#1D1D1D"/>
<path d="M114.021 30.2902H108.287V11.6819H114.021V30.2902Z" fill="#1D1D1D"/>
<path d="M126.868 30.2902H121.134V16.592H116.052V11.6819H131.921V16.592H126.868V30.2902Z" fill="#1D1D1D"/>
<path d="M151.398 30.2902H144.898L144.216 28.1141H137.404L136.722 30.2902H130.222L137.205 11.6819H144.415L151.398 30.2902ZM142.684 23.204L140.81 17.2058L138.936 23.204H142.684Z" fill="#1D1D1D"/>
<path d="M165.335 30.2902H152.419V11.6819H158.153V25.3801H165.335V30.2902Z" fill="#1D1D1D"/>
<path d="M191.82 30.2902H185.291L182.68 24.4315H180.608V30.2902H174.873V11.6819H184.979C187.118 11.6819 188.783 12.2957 189.975 13.5232C191.186 14.7321 191.792 16.2479 191.792 18.0707C191.792 19.5214 191.451 20.7117 190.77 21.6417C190.108 22.5716 189.313 23.2598 188.385 23.7062L191.82 30.2902ZM184.099 19.5214C184.629 19.5214 185.074 19.4005 185.433 19.1587C185.793 18.8983 185.973 18.5263 185.973 18.0428C185.973 17.5778 185.793 17.2244 185.433 16.9826C185.074 16.7222 184.629 16.592 184.099 16.592H180.608V19.5214H184.099Z" fill="#1D1D1D"/>
<path d="M208.476 30.2902H194.112V11.6819H208.476V16.592H199.846V18.4333H208.277V23.3435H199.846V25.3801H208.476V30.2902Z" fill="#1D1D1D"/>
<path d="M229.417 30.2902H222.661L219.197 24.5989L215.734 30.2902H208.978L215.308 20.7489L209.404 11.6819H216.132L219.197 16.9826L222.206 11.6819H228.991L223.086 20.721L229.417 30.2902Z" fill="#1D1D1D"/>
</svg>
