<svg width="182" height="34" viewBox="0 0 182 34" fill="none" xmlns="http://www.w3.org/2000/svg">
<path d="M0 5.55311C0 2.48621 2.48621 0 5.55311 0H27.7655C30.8324 0 33.3187 2.48621 33.3187 5.55311V27.7655C33.3187 30.8324 30.8324 33.3187 27.7655 33.3187H5.55311C2.48621 33.3187 0 30.8324 0 27.7655V5.55311Z" fill="#CFFF46"/>
<path fill-rule="evenodd" clip-rule="evenodd" d="M10.4815 13.9868C10.5934 13.9581 10.9074 13.9658 11.268 14.2255C11.4567 14.3613 11.5832 14.5657 11.7101 14.7709C11.8865 15.0558 12.0637 15.3421 12.4095 15.4475C12.7556 15.5531 13.8326 15.3385 14.7502 15.1558C15.4093 15.0245 15.986 14.9096 16.1504 14.9415C16.465 15.0026 16.9658 15.3934 17.1768 15.5812C17.1544 15.6703 17.1231 15.8581 17.1768 15.8963C17.2033 15.9152 17.2448 15.8833 17.2949 15.845C17.3713 15.7863 17.4677 15.7124 17.5605 15.7817C17.6518 15.8499 17.5733 16.1311 17.5088 16.3618C17.465 16.5187 17.4277 16.6521 17.4549 16.6792C17.4907 16.7148 17.6243 16.5852 17.7603 16.4535C17.8797 16.3378 18.001 16.2203 18.0592 16.2113C18.184 16.1923 18.2127 16.2877 18.2223 16.3546C18.2264 16.3829 18.1875 16.4574 18.1456 16.5375C18.0885 16.6467 18.0261 16.7662 18.0592 16.7937C18.092 16.8209 18.2117 16.7337 18.3194 16.6553C18.401 16.5958 18.4757 16.5414 18.5005 16.5455C18.5581 16.5551 18.7691 16.7556 18.7786 16.8319C18.7821 16.8589 18.7483 16.9502 18.708 17.0596V17.0596C18.634 17.2598 18.5378 17.5205 18.606 17.5575C18.6635 17.5888 18.8209 17.4384 18.9707 17.2951C19.0957 17.1756 19.2155 17.0611 19.2678 17.0611C19.383 17.0611 19.4022 17.1279 19.4022 17.2138C19.4022 17.2436 19.3803 17.3352 19.3537 17.4466C19.3035 17.6569 19.2365 17.9376 19.2678 18.0063C19.3158 18.1113 19.6324 17.8917 19.7379 17.7676C19.8223 17.6683 19.8818 17.4143 19.9009 17.2997H20.3326C20.3262 17.3984 20.2923 17.6988 20.2079 18.1113C20.1518 18.3852 20.0823 18.5729 20.0351 18.7001C19.9934 18.8123 19.9693 18.8775 19.9873 18.9133C20.0257 18.9897 20.371 18.8083 20.7067 18.3691C20.8801 18.1422 20.9409 17.9332 20.9843 17.7842C21.0249 17.6446 21.0502 17.5575 21.1383 17.5575C21.2494 17.5575 21.2714 17.6674 21.302 17.8202C21.3216 17.9182 21.3448 18.0339 21.3973 18.1495C21.5316 18.4455 21.6371 18.6364 21.7139 18.6078C21.7381 18.5987 21.7795 18.5411 21.8313 18.4692C21.9434 18.3134 22.1036 18.0907 22.2414 18.1495C22.4429 18.2354 22.4524 18.9037 22.3853 19.047C22.3182 19.1902 22.9033 18.9324 23.0951 18.4264C23.2486 18.0216 23.2614 17.6785 23.2486 17.5575C23.303 17.5098 23.4251 17.42 23.4788 17.443C23.5325 17.4659 23.5268 17.9935 23.5172 18.2545C23.5363 18.2641 23.5843 18.2698 23.6227 18.2163C23.6707 18.1495 23.5939 18.5982 23.5172 18.6937C23.4405 18.7892 23.968 18.6364 24.1503 18.2163C24.2961 17.8803 24.275 17.5798 24.2462 17.4716C24.3069 17.443 24.4399 17.4029 24.486 17.4716C24.5435 17.5575 24.6203 17.7867 24.649 18.1495C24.6635 18.3317 24.6514 18.5283 24.6417 18.6838V18.6838C24.6322 18.8379 24.6252 18.9516 24.649 18.9706C24.697 19.0088 25.1575 18.6269 25.2342 18.2163C25.2956 17.8879 25.2597 17.583 25.2342 17.4716H25.3493C25.3749 17.5098 25.4241 17.6015 25.4164 17.6626C25.4068 17.739 25.5028 17.6435 25.5315 17.5575L25.5699 17.443H25.6658C25.6818 17.5353 25.6927 17.7733 25.6083 17.9872C25.6498 17.9935 25.7675 17.9586 25.9056 17.7676C26.0081 17.6259 26.043 17.5736 26.0502 17.5599C26.0598 17.59 26.0719 17.6604 26.0495 17.7198C26.0207 17.7963 26.2317 17.739 26.2989 17.4716C26.3526 17.2577 26.3213 17.147 26.2989 17.1184C26.5803 16.8829 27.1027 16.3526 26.9416 16.1158C26.7401 15.8199 25.9536 15.8676 25.7138 15.9249C25.6766 15.9338 25.6001 15.9582 25.4907 15.9932C24.8934 16.1841 23.3146 16.6887 21.7906 16.6887C20.1138 16.6887 19.4073 16.3173 18.7534 15.9734L18.7533 15.9734C18.7041 15.9475 18.6551 15.9217 18.606 15.8963C18.0458 15.606 17.3558 14.967 17.0809 14.6837C17.4773 15.0115 18.6463 15.7645 20.0736 16.1158C21.7609 16.5312 22.7448 16.3232 23.8121 16.0975C23.8734 16.0845 23.9349 16.0715 23.9968 16.0586C24.5298 15.9471 24.9184 15.8211 25.2322 15.7194C25.5903 15.6033 25.8508 15.5189 26.1166 15.5239C26.5157 15.5315 26.8329 15.6417 26.9416 15.6958C26.9512 14.8079 26.8303 12.8831 26.2701 12.2873C26.0246 12.0276 25.5283 11.9627 25.3109 11.9627C25.0583 11.7144 24.4937 11.1893 24.2558 11.0748C24.0179 10.9602 23.7986 10.9697 23.7186 10.9888C23.546 10.8233 23.1335 10.4561 22.8649 10.311C22.5963 10.1658 22.2606 10.1105 22.1263 10.1009C21.9856 9.94814 21.6352 9.63689 21.3589 9.61398C21.1945 9.60034 21.0127 9.67762 20.8352 9.75304C20.64 9.83603 20.45 9.91678 20.2942 9.87176C20.1269 9.8234 20.0507 9.67221 19.9784 9.52883C19.9222 9.41746 19.8685 9.31081 19.7762 9.26072C19.6863 9.21191 19.4311 9.24454 19.1046 9.28627C18.6647 9.34249 18.0956 9.41524 17.6276 9.32755C16.8123 9.17479 16.112 8.83108 15.6133 8.46827C15.3652 8.28781 15.1717 8.08609 15.0197 7.92773C14.8662 7.76772 14.6987 7.71953 14.6167 7.71474C14.0049 7.67892 13.7837 7.97811 13.4512 8.16906C13.1282 8.15951 12.467 8.21048 12.1601 8.32506C11.9902 8.38846 11.9162 8.47433 11.8258 8.57935C11.7119 8.71151 11.5719 8.87401 11.1817 9.06022C10.9731 9.15976 10.7994 9.23643 10.649 9.30285C10.2943 9.45938 10.0688 9.55893 9.81961 9.76674C9.64534 9.91208 9.51038 10.2347 9.30458 10.7266C9.09127 11.2365 8.80185 11.9284 8.31365 12.7933C7.95324 13.4318 7.60096 14.0273 7.29548 14.5436C6.78791 15.4015 6.40953 16.041 6.33767 16.2973C6.27026 16.5377 6.30812 16.7716 6.34336 16.9893C6.36831 17.1434 6.39194 17.2893 6.37604 17.4239C6.3692 17.4818 6.35747 17.5594 6.34348 17.652L6.34347 17.6521C6.279 18.079 6.16636 18.8248 6.26093 19.4289C6.37604 20.1641 7.49832 22.6846 7.83404 22.7705C8.01863 22.8178 8.73964 22.7467 9.42157 22.6794C9.97993 22.6244 10.5121 22.5719 10.7021 22.5891C10.8989 22.6069 11.1062 22.6684 11.3103 22.7289C11.5438 22.798 11.7731 22.866 11.9778 22.866C12.3615 22.866 12.6014 22.57 12.5342 22.5032C12.5205 22.4896 12.4816 22.4654 12.4211 22.4279C12.1852 22.2814 11.6203 21.931 10.9419 21.2047C10.4335 20.6605 10.0562 19.8267 10.021 19.6103C9.77805 19.8681 9.14625 20.3722 8.56304 20.3264C8.07031 20.2876 7.94567 20.0744 7.86037 19.9285C7.81946 19.8585 7.7876 19.8041 7.72853 19.7917C7.66597 19.7786 7.60001 19.797 7.52912 19.8167C7.39349 19.8546 7.23977 19.8974 7.05708 19.7344C6.83454 19.5358 6.91959 18.9515 6.98993 18.6842C6.98993 18.8974 7.05324 19.3448 7.30648 19.4289C7.47458 19.4846 7.58858 19.4569 7.693 19.4316C7.78522 19.4092 7.86997 19.3886 7.97792 19.4289C8.08284 19.4681 8.16385 19.5627 8.24365 19.656C8.33895 19.7674 8.43253 19.8767 8.56304 19.8871C8.75489 19.9024 9.49028 19.397 9.84839 19.1138C9.78124 18.9961 9.68149 18.5868 9.62777 18.2354C9.57406 17.8841 9.62457 17.4175 9.66614 17.2138C9.68111 17.274 9.69702 17.3387 9.71386 17.4072L9.7139 17.4074C9.88778 18.1145 10.1626 19.2322 10.5582 20.059C11.0108 21.0051 11.7712 21.5823 12.3501 22.0217C12.4722 22.1144 12.5863 22.201 12.6877 22.2836C12.9307 22.2804 13.62 22.3447 14.4334 22.6273C15.193 22.8912 16.37 23.5546 17.1968 24.0207C17.4769 24.1786 17.7167 24.3138 17.8866 24.4032C18.5581 24.7564 20.429 25.6345 20.9081 25.6061C21.5604 25.5675 22.0869 25.0075 22.5132 24.5541C22.6135 24.4474 22.7082 24.3466 22.7978 24.2599C22.4013 24.2217 21.3033 23.9697 20.0832 23.267C19.1335 22.7201 17.6929 21.2254 16.6275 20.1201C15.9819 19.4503 15.4741 18.9234 15.2967 18.8369C14.9989 18.6917 14.3119 18.6922 13.751 18.6926C13.4268 18.6928 13.1447 18.6931 13.0042 18.6651C12.6205 18.5887 12.2368 18.2927 12.0354 17.844C11.9461 17.645 11.8038 17.1837 11.6464 16.6733C11.4488 16.0326 11.2273 15.3145 11.057 14.9415C10.8534 14.4956 10.677 14.2601 10.572 14.1199C10.5286 14.0619 10.4974 14.0203 10.4815 13.9868ZM11.6517 15.3139C11.8404 16.0204 12.2733 17.5805 12.6493 17.9776C12.9142 18.2575 13.5478 18.2734 14.1568 18.2888C14.6284 18.3006 15.0851 18.3122 15.3447 18.4455C15.6011 18.5772 16.0954 19.0963 16.7182 19.7504C17.5397 20.6132 18.585 21.7109 19.6036 22.465C20.7642 23.3243 22.1743 23.9162 22.9608 24.0117C23.0184 23.9194 23.1163 23.668 23.0471 23.4006C22.9781 23.1333 22.7242 22.9646 22.606 22.9137C22.5803 22.8787 22.5196 22.8297 22.4812 22.9137C22.4429 22.9978 22.3437 23.0188 22.299 23.0188C22.299 22.9742 22.2817 22.8832 22.2126 22.8755C22.1436 22.8679 21.9984 23.057 21.9345 23.1524C21.9249 23.1715 21.8961 23.204 21.8578 23.1811C21.8379 23.1692 21.8164 23.0871 21.7919 22.9936C21.7573 22.861 21.7165 22.7053 21.6659 22.6942C21.6185 22.6837 21.5135 22.8397 21.4204 22.9781C21.3437 23.0921 21.2751 23.194 21.2534 23.1811C21.2241 23.1635 21.2234 22.9453 21.223 22.7745V22.7744C21.2227 22.6664 21.2225 22.5774 21.215 22.57C21.2077 22.5627 21.1694 22.6171 21.1216 22.6848L21.1216 22.6849C21.0448 22.7938 20.9436 22.9373 20.9081 22.9137C20.8783 22.8939 20.8537 22.7128 20.8301 22.5402C20.8083 22.3794 20.7874 22.226 20.7642 22.2168C20.7412 22.2076 20.7048 22.2735 20.6668 22.3423C20.6259 22.4165 20.5831 22.494 20.5532 22.4841C20.5215 22.4736 20.5218 22.2432 20.5221 22.0334C20.5223 21.8621 20.5225 21.7045 20.5052 21.6916C20.4868 21.6779 20.3993 21.7925 20.3083 21.9118C20.2103 22.0403 20.1081 22.1743 20.0832 22.1595C20.0622 22.1469 20.0449 22.0081 20.0256 21.8536C20.0008 21.6551 19.9728 21.4309 19.9297 21.4148C19.8978 21.4028 19.8342 21.5052 19.7604 21.6239C19.6572 21.7902 19.5341 21.9884 19.4501 21.9494C19.3619 21.9085 19.335 21.6164 19.3141 21.3898C19.3009 21.2468 19.2901 21.1299 19.2678 21.1188C19.2429 21.1064 19.1822 21.1762 19.1158 21.2524C19.0287 21.3524 18.9319 21.4635 18.8937 21.4148C18.8555 21.3658 18.8546 21.2148 18.8538 21.0867C18.8533 20.9898 18.8528 20.9061 18.8362 20.8897C18.819 20.8724 18.7706 20.925 18.7181 20.9818C18.6542 21.0512 18.5844 21.1269 18.5581 21.0902C18.5338 21.0563 18.5463 20.8612 18.5585 20.6729C18.5703 20.4891 18.5817 20.3118 18.5581 20.2977C18.5382 20.2859 18.4708 20.3817 18.3932 20.4921C18.2831 20.6489 18.1522 20.835 18.1072 20.7846C18.0648 20.7371 18.0986 20.4417 18.1292 20.1741C18.154 19.9574 18.1767 19.759 18.1552 19.7248C18.1289 19.683 18.0854 19.7157 18.045 19.7459C18.0118 19.7709 17.9807 19.7942 17.9634 19.7726C17.945 19.7497 17.9552 19.635 17.9656 19.5184C17.9768 19.3914 17.9883 19.2624 17.9634 19.2475C17.9407 19.2339 17.8173 19.3612 17.6884 19.4941C17.5445 19.6424 17.3939 19.7978 17.3686 19.7726C17.3416 19.7457 17.3481 19.6157 17.3537 19.5022C17.3581 19.4143 17.362 19.3363 17.3494 19.3238C17.3373 19.3118 17.2859 19.3354 17.2255 19.3631C17.1426 19.4011 17.0429 19.4469 17.0041 19.4193C16.9681 19.3937 16.9846 19.3022 17.0001 19.2154C17.0135 19.1405 17.0264 19.0691 17.0041 19.047C16.9814 19.0244 16.9199 19.036 16.8543 19.0485C16.7815 19.0623 16.7037 19.0771 16.6684 19.047C16.6305 19.0146 16.6476 18.8697 16.6628 18.7411C16.6745 18.6418 16.6851 18.5522 16.6684 18.5314C16.6494 18.5078 16.5907 18.5448 16.5326 18.5814C16.4731 18.6189 16.4144 18.6558 16.3998 18.6269C16.3865 18.6004 16.3855 18.4961 16.3845 18.388C16.3833 18.2625 16.382 18.1318 16.3615 18.1113C16.3482 18.0981 16.3259 18.1292 16.2937 18.174C16.2324 18.2591 16.1353 18.3941 15.9969 18.3691C15.8838 18.3487 15.8369 18.2953 15.7881 18.2398C15.7459 18.1918 15.7023 18.1423 15.6133 18.1113C15.4598 18.0578 15.2423 18.089 15.1529 18.1113C15.1081 17.984 15.0032 17.5957 14.9418 17.0611C14.8651 16.3928 14.8842 16.03 14.913 15.9918C14.9361 15.9612 15.7476 15.5207 16.1504 15.3043C15.2839 15.5653 13.6661 16.03 12.5246 15.8963C12.1757 15.8554 11.7284 15.4571 11.6517 15.3139ZM15.1529 17.2138C15.1656 17.287 15.2008 17.4697 15.2392 17.6148C15.2775 17.76 15.3255 17.8663 15.3447 17.9013C15.415 17.8917 15.5768 17.8841 15.6612 17.9299C15.7456 17.9758 15.901 18.1018 15.9682 18.1591C16.0703 18.1349 16.1463 18.0645 16.2084 18.0069C16.2688 17.9511 16.3161 17.9073 16.3615 17.9299C16.4958 17.9968 16.512 18.1397 16.5253 18.2575C16.5301 18.2994 16.5344 18.3381 16.5437 18.3691C16.6045 18.3563 16.7758 18.3214 16.8219 18.3977C16.8679 18.4741 16.8794 18.7542 16.8794 18.8847C16.9466 18.8783 17.0866 18.8751 17.1096 18.9133C17.1326 18.9515 17.1448 19.0947 17.148 19.1615C17.2407 19.1329 17.4338 19.0928 17.4645 19.1615C17.4953 19.2303 17.5285 19.2984 17.5413 19.3238C17.6564 19.2156 17.9135 19.0088 18.0209 19.047C18.1283 19.0852 18.1552 19.3939 18.1552 19.5435C18.1776 19.5243 18.2338 19.4976 18.2799 19.5435C18.3116 19.575 18.2996 19.8246 18.2891 20.0434C18.2843 20.1421 18.2799 20.2344 18.2799 20.2977C18.3246 20.2436 18.4986 20.0609 18.606 20.1068C18.7134 20.1526 18.7211 20.5332 18.7115 20.7178C18.7531 20.6955 18.8535 20.6643 18.9225 20.7178C18.9916 20.7712 19.0217 20.9247 19.0281 20.9947C19.1336 20.7178 19.1336 20.122 18.865 19.3811C18.7444 19.0485 18.5585 18.8712 18.3732 18.6944C18.2489 18.5759 18.1249 18.4575 18.0209 18.2927C17.9192 18.1316 17.8761 18.0179 17.8394 17.9211C17.7825 17.7712 17.7411 17.6621 17.5221 17.4812C17.2071 17.221 16.7 17.3384 16.3348 17.423C16.1773 17.4595 16.0462 17.4898 15.9682 17.4812C15.8089 17.4635 15.6676 17.287 15.6133 17.2138H15.1529ZM19.2678 20.5459C19.1681 20.1106 19.1304 19.6771 19.1719 19.5148C19.2653 19.5334 19.2779 19.6365 19.2883 19.7222C19.294 19.7685 19.299 19.8098 19.3158 19.8299C19.3298 19.8466 19.3888 19.774 19.454 19.6937C19.5347 19.5943 19.625 19.4831 19.6516 19.5148C19.6899 19.5606 19.6675 19.8458 19.6516 19.9826C19.6803 19.9667 19.7456 19.9444 19.7762 19.9826C19.7935 20.004 19.7953 20.11 19.7971 20.2247C19.7995 20.3656 19.8021 20.5196 19.8338 20.5459C19.8623 20.5696 19.9237 20.4738 19.9866 20.3758C20.0508 20.2758 20.1164 20.1734 20.1503 20.1927C20.1852 20.2125 20.1761 20.371 20.1674 20.5243C20.1593 20.6666 20.1514 20.8044 20.1791 20.8228C20.2096 20.8431 20.2509 20.823 20.2901 20.8041C20.3249 20.7872 20.358 20.7712 20.3805 20.7846C20.4046 20.799 20.4069 20.9212 20.4093 21.0455C20.4117 21.1694 20.4141 21.2955 20.4381 21.3193C20.4606 21.3416 20.5396 21.272 20.6244 21.1975C20.7208 21.1126 20.8244 21.0215 20.8602 21.052C20.8907 21.078 20.9034 21.1969 20.9171 21.3259C20.9337 21.4806 20.9518 21.65 21.0041 21.6916C21.0541 21.7315 21.1303 21.6049 21.2054 21.4801C21.2741 21.3659 21.3419 21.2533 21.3877 21.2715C21.4345 21.2902 21.4357 21.4067 21.4368 21.5266C21.438 21.6523 21.4393 21.7818 21.4932 21.8062C21.551 21.8324 21.6779 21.6981 21.7903 21.5791C21.8831 21.4809 21.966 21.3932 21.992 21.4148C22.0381 21.453 22.0112 21.8953 21.992 22.1117C22.0272 22.099 22.1071 22.0907 22.1455 22.1595C22.1679 22.1996 22.1568 22.2335 22.1474 22.2622C22.1367 22.2948 22.1283 22.3205 22.1743 22.3409C22.2146 22.3587 22.2446 22.3599 22.2718 22.361C22.3028 22.3621 22.3304 22.3632 22.3661 22.3886C22.3938 22.4083 22.4035 22.4344 22.4115 22.4557C22.4228 22.4861 22.4305 22.5066 22.4812 22.4841C22.5503 22.4535 22.6123 22.4714 22.6347 22.4841C22.6251 22.535 22.5925 22.6407 22.5388 22.656C22.5069 22.665 22.5031 22.6891 22.4987 22.717C22.4939 22.748 22.4882 22.7836 22.4429 22.8087C22.3738 22.8469 22.3437 22.8246 22.3373 22.8087C22.3342 22.7801 22.3124 22.717 22.251 22.6942C22.1896 22.6712 22.0528 22.7037 21.992 22.7228C21.9473 22.6369 21.829 22.465 21.7139 22.465C21.5988 22.465 21.4485 22.535 21.3877 22.57C21.3845 22.5096 21.3609 22.3791 21.2918 22.3409C21.2227 22.3027 21.1096 22.3568 21.0616 22.3886C21.0105 22.2549 20.8985 22.0029 20.8602 21.9494C20.8218 21.896 20.7803 21.8985 20.7642 21.9208C20.7533 21.8801 20.7452 21.8234 20.7368 21.7639C20.7182 21.6326 20.6976 21.4878 20.6395 21.4721C20.5551 21.4491 20.3198 21.6184 20.2559 21.6916C20.2303 21.5293 20.1542 21.1933 20.0544 21.1475C19.9732 21.1101 19.8377 21.2074 19.7401 21.2775H19.7401C19.7178 21.2935 19.6976 21.3081 19.6803 21.3193C19.594 21.2588 19.3676 20.9813 19.2678 20.5459ZM13.8786 8.49019C13.8798 8.58224 13.881 8.67839 13.9442 8.76425C14.0102 8.85382 14.1325 8.83881 14.2313 8.82669C14.2904 8.81943 14.3412 8.8132 14.3663 8.83108C14.393 8.85007 14.4228 8.89776 14.4591 8.95613C14.5142 9.04449 14.5846 9.15733 14.6828 9.23208C14.8133 9.33137 15.0697 9.47713 15.1816 9.5376C15.1551 9.54391 15.1258 9.55048 15.0945 9.55751L15.0944 9.55753C14.8733 9.6072 14.5511 9.67958 14.3663 9.84312C13.9778 10.1868 13.9058 10.4542 13.8579 10.7215C14.0689 10.4446 14.4929 10.0493 14.7691 9.95769C15.1145 9.84312 15.2296 9.86222 15.3639 9.95769C15.3955 9.98018 15.4654 10.063 15.5613 10.1766C15.8723 10.5451 16.4564 11.2371 16.889 11.2371C17.2208 11.2371 17.3086 11.1747 17.3921 11.1154C17.4511 11.0736 17.5079 11.0333 17.6468 11.0175C17.7423 11.0066 17.7882 11.0425 17.8325 11.0772C17.8818 11.1157 17.9291 11.1526 18.0401 11.1225C18.135 11.0967 18.1911 11.0594 18.2398 11.0269C18.2994 10.9873 18.3479 10.9549 18.4429 10.9602C18.5272 10.9648 18.5544 11.0037 18.5813 11.0422C18.6095 11.0825 18.6375 11.1225 18.7307 11.1225C18.818 11.1225 18.8634 11.0897 18.9051 11.0596C18.9503 11.0269 18.991 10.9976 19.076 11.0175C19.1445 11.0335 19.1775 11.0715 19.2147 11.1143C19.2661 11.1735 19.3256 11.242 19.4981 11.2753C19.6559 11.3057 19.7165 11.2823 19.7758 11.2593C19.8283 11.2391 19.8798 11.2191 19.9969 11.2371C20.135 11.2582 20.1761 11.3087 20.2145 11.356C20.2455 11.394 20.2748 11.4301 20.3518 11.4471C20.4246 11.4632 20.5231 11.4606 20.6235 11.458C20.7608 11.4544 20.9017 11.4507 20.9848 11.4948C21.0506 11.5298 21.1204 11.5747 21.2043 11.6286C21.3039 11.6927 21.4234 11.7695 21.5796 11.8577C21.8098 11.9875 22.072 12.0582 22.1743 12.0773C21.9952 11.8768 21.5623 11.4357 21.263 11.2753C21.0301 11.1504 20.9496 11.1181 20.8757 11.0884C20.831 11.0705 20.7887 11.0535 20.7163 11.0175C20.6218 10.9704 20.5971 10.9303 20.5746 10.8938C20.5514 10.8561 20.5306 10.8222 20.4381 10.7883C20.2644 10.7246 19.7247 10.7216 19.6994 10.7215L19.6985 10.7215H19.6995C19.7283 10.7215 19.6324 10.5305 19.3254 10.3969C19.0798 10.29 18.7307 10.3078 18.5868 10.33C18.5677 10.2378 18.4737 10.0474 18.2511 10.0245C18.0286 10.0016 17.7811 10.1232 17.6852 10.1868C17.6116 10.1105 17.3955 9.95769 17.1192 9.95769C16.843 9.95769 16.5948 10.0786 16.5053 10.1391C16.0801 9.63626 15.1701 8.58857 14.9322 8.42053C14.6943 8.2525 14.1894 8.10139 13.8579 8.31551C13.8771 8.36905 13.8779 8.4287 13.8786 8.49019ZM10.5486 12.5164C10.5966 12.5037 10.798 12.3064 10.798 12.02C10.798 11.9832 10.792 11.9038 10.7838 11.7962L10.7838 11.7961V11.7961L10.7838 11.796C10.7482 11.3276 10.672 10.3243 10.8747 9.96724C11.0553 9.64922 11.7288 9.39128 12.1886 9.21516C12.3639 9.14805 12.508 9.09282 12.5821 9.05067C12.797 8.92847 12.9658 8.83426 13.0234 8.80244C13.001 8.88518 12.8738 9.11178 12.5438 9.3562C12.4206 9.44743 12.2863 9.5293 12.1511 9.61172C11.8336 9.8053 11.5111 10.0019 11.316 10.33C11.2158 10.4986 11.2211 10.8398 11.2266 11.1928C11.2326 11.5721 11.2387 11.9651 11.1146 12.1727C10.9227 12.4935 10.6573 12.5355 10.5486 12.5164ZM15.3639 11.4948C14.7116 11.3879 14.5358 11.0366 14.5294 10.8743C14.5773 10.5115 14.9207 10.4198 15.2967 10.5115C15.6727 10.6031 15.901 11.0588 15.9874 11.2753C16.0385 11.393 16.0161 11.6018 15.3639 11.4948ZM23.5172 12.6787C23.5268 12.8029 23.805 13.1848 24.1694 13.3757C24.2514 13.4186 24.3367 13.4606 24.4213 13.5021V13.5022H24.4214C24.7126 13.6454 24.9936 13.7836 25.0903 13.939C25.1167 13.9815 25.1388 14.0183 25.1578 14.05C25.2285 14.168 25.256 14.2139 25.3013 14.2063C25.3589 14.1968 25.3301 13.6717 24.9368 13.1752C24.6222 12.778 23.8593 12.6787 23.5172 12.6787ZM25.685 13.0129C25.3781 12.7074 25.1958 12.3923 25.2246 12.2587C25.4516 12.2778 25.9574 12.4401 26.1646 12.9366C26.3718 13.433 26.2509 13.7862 26.1646 13.9008C26.1646 13.8435 26.1531 13.6984 26.1071 13.5762C26.0495 13.4234 25.992 13.3184 25.685 13.0129ZM6.62543 18.0445C6.75972 17.9554 7.04365 17.7408 7.10504 17.5958C7.13962 17.514 7.11772 17.4497 7.09463 17.3819C7.06647 17.2992 7.03653 17.2113 7.10504 17.0802C7.22974 16.8415 7.96833 16.3068 8.10262 16.2973C8.11323 16.2965 8.12391 16.2959 8.13464 16.2952C8.25966 16.2878 8.39217 16.2799 8.52468 16.0777C8.5663 16.0141 8.63316 15.8375 8.71517 15.6209C8.85956 15.2394 9.05097 14.7337 9.23449 14.5023C9.46471 14.2121 9.76526 14.0186 9.88676 13.9581C9.90595 14.044 9.84647 14.2636 9.80043 14.3782C9.7776 14.435 9.65819 14.6646 9.51462 14.9406H9.5146L9.51459 14.9406C9.29621 15.3604 9.02196 15.8876 8.94673 16.0777C8.91129 16.1672 8.89057 16.2321 8.87444 16.2826C8.83383 16.4097 8.82234 16.4457 8.67815 16.5551C8.55062 16.6518 8.47688 16.6589 8.39615 16.6666C8.34937 16.671 8.30023 16.6758 8.23691 16.6983C7.96833 16.7937 7.5175 17.1852 7.46954 17.2997C7.44913 17.3485 7.45478 17.4353 7.46061 17.5249C7.46848 17.6457 7.47667 17.7715 7.42158 17.8153C7.13382 18.0445 6.87483 18.0445 6.62543 18.0445Z" fill="#121212"/>
<path d="M15.6354 10.9146C15.6692 11.106 15.5679 11.2837 15.4091 11.3115C15.2503 11.3393 15.0941 11.2068 15.0602 11.0154C15.0264 10.824 15.1277 10.6463 15.2865 10.6185C15.4453 10.5907 15.6016 10.7233 15.6354 10.9146Z" fill="#121212"/>
<path d="M52.7479 24.0291H46.0146V9.26713H52.7254C55.1574 9.26713 57.1391 9.92371 58.6704 11.2369C60.2018 12.5353 60.9674 14.3353 60.9674 16.6371C60.9674 18.9388 60.2018 20.7462 58.6704 22.0594C57.1391 23.3726 55.165 24.0291 52.7479 24.0291ZM52.7254 20.1339C53.8213 20.1339 54.6996 19.7946 55.3601 19.1158C56.0207 18.4371 56.351 17.6109 56.351 16.6371C56.351 15.5895 56.0432 14.7485 55.4277 14.114C54.8122 13.4796 53.9189 13.1624 52.7479 13.1624H50.5635V20.1339H52.7254Z" fill="#F3F3F3"/>
<path d="M67.1451 24.0291H62.5962V9.26713H67.1451V24.0291Z" fill="#F3F3F3"/>
<path d="M77.0213 24.2947C74.6793 24.2947 72.7126 23.6013 71.1213 22.2143C69.5449 20.8126 68.7568 18.9609 68.7568 16.6592C68.7568 14.3575 69.5449 12.5132 71.1213 11.1262C72.7126 9.72453 74.6793 9.02368 77.0213 9.02368C78.6727 9.02368 80.0464 9.39255 81.1423 10.1303C82.2533 10.868 83.079 11.7828 83.6194 12.8746L79.7912 14.8001C79.551 14.2985 79.1832 13.8706 78.6877 13.5165C78.2073 13.1476 77.6519 12.9632 77.0213 12.9632C75.9404 12.9632 75.0621 13.3173 74.3866 14.0255C73.711 14.7337 73.3732 15.6116 73.3732 16.6592C73.3732 17.7068 73.711 18.5847 74.3866 19.2929C75.0621 20.0011 75.9404 20.3552 77.0213 20.3552C77.4417 20.3552 77.877 20.2888 78.3274 20.156C78.7778 20.0233 79.1231 19.8683 79.3633 19.6913V19.1601H76.5709V15.2649H83.8897V21.3069C82.0581 23.2988 79.7687 24.2947 77.0213 24.2947Z" fill="#F3F3F3"/>
<path d="M90.456 24.0291H85.9071V9.26713H90.456V24.0291Z" fill="#F3F3F3"/>
<path d="M100.647 24.0291H96.0986V13.1624H92.0677V9.26713H104.656V13.1624H100.647V24.0291Z" fill="#F3F3F3"/>
<path d="M120.108 24.0291H114.951L114.41 22.3028H109.006L108.465 24.0291H103.308L108.848 9.26713H114.568L120.108 24.0291ZM113.194 18.4076L111.708 13.6493L110.222 18.4076H113.194Z" fill="#F3F3F3"/>
<path d="M131.164 24.0291H120.917V9.26713H125.466V20.1339H131.164V24.0291Z" fill="#F3F3F3"/>
<path d="M152.174 24.0291H146.995L144.923 19.3814H143.279V24.0291H138.73V9.26713H146.747C148.444 9.26713 149.765 9.75404 150.711 10.7278C151.672 11.6869 152.152 12.8894 152.152 14.3353C152.152 15.4862 151.882 16.4305 151.341 17.1682C150.816 17.906 150.185 18.4519 149.45 18.806L152.174 24.0291ZM146.049 15.4862C146.47 15.4862 146.822 15.3903 147.108 15.1985C147.393 14.9919 147.535 14.6968 147.535 14.3132C147.535 13.9444 147.393 13.664 147.108 13.4722C146.822 13.2656 146.47 13.1624 146.049 13.1624H143.279V15.4862H146.049Z" fill="#F3F3F3"/>
<path d="M165.387 24.0291H153.993V9.26713H165.387V13.1624H158.541V14.6231H165.23V18.5183H158.541V20.1339H165.387V24.0291Z" fill="#F3F3F3"/>
<path d="M182 24.0291H176.64L173.893 19.5142L171.145 24.0291H165.786L170.808 16.46L166.124 9.26713H171.461L173.893 13.4722L176.28 9.26713H181.662L176.978 16.4379L182 24.0291Z" fill="#F3F3F3"/>
</svg>
