<svg width="48" height="48" viewBox="0 0 48 48" fill="none" xmlns="http://www.w3.org/2000/svg">
<path d="M33.9502 29.5965L24.75 23.5935V9C24.75 8.80109 24.671 8.61032 24.5303 8.46967C24.3897 8.32902 24.1989 8.25 24 8.25C23.8011 8.25 23.6103 8.32902 23.4697 8.46967C23.329 8.61032 23.25 8.80109 23.25 9V24.4065L33.1297 30.8565C33.2123 30.9104 33.3046 30.9475 33.4015 30.9657C33.4984 30.9838 33.5979 30.9828 33.6943 30.9625C33.7908 30.9422 33.8823 30.9032 33.9637 30.8475C34.045 30.7919 34.1146 30.7208 34.1685 30.6382C34.2224 30.5557 34.2595 30.4634 34.2777 30.3665C34.2958 30.2696 34.2948 30.1701 34.2745 30.0737C34.2542 29.9772 34.2152 29.8857 34.1595 29.8043C34.1039 29.723 34.0328 29.6534 33.9502 29.5995V29.5965Z" fill="#E42024"/>
<path d="M24 0C19.2533 0 14.6131 1.40758 10.6663 4.04473C6.71954 6.68188 3.6434 10.4302 1.8269 14.8156C0.0103987 19.201 -0.464881 24.0266 0.461164 28.6822C1.38721 33.3377 3.67299 37.6141 7.02945 40.9706C10.3859 44.327 14.6623 46.6128 19.3178 47.5388C23.9734 48.4649 28.799 47.9896 33.1844 46.1731C37.5698 44.3566 41.3181 41.2805 43.9553 37.3337C46.5924 33.3869 48 28.7467 48 24C48 17.6348 45.4714 11.5303 40.9706 7.02944C36.4697 2.52856 30.3652 0 24 0V0ZM40.4198 39.3592L38.9948 37.9342C38.8534 37.794 38.6622 37.7157 38.4631 37.7164C38.264 37.7172 38.0734 37.797 37.9331 37.9384C37.7929 38.0797 37.7145 38.2709 37.7153 38.47C37.7161 38.6691 37.7959 38.8598 37.9373 39L39.3623 40.425C35.3895 44.1527 30.195 46.3056 24.75 46.4812V44.25C24.75 44.0511 24.671 43.8603 24.5303 43.7197C24.3897 43.579 24.1989 43.5 24 43.5C23.8011 43.5 23.6103 43.579 23.4697 43.7197C23.329 43.8603 23.25 44.0511 23.25 44.25V46.4812C17.8055 46.3037 12.6121 44.1491 8.64076 40.4205L10.0658 38.9955C10.2061 38.8542 10.2845 38.6629 10.2838 38.4637C10.2831 38.2646 10.2033 38.0738 10.062 37.9335C9.92068 37.7932 9.7294 37.7147 9.53023 37.7154C9.33107 37.7161 9.14034 37.7959 9.00001 37.9372L7.57501 39.3622C3.84733 35.3895 1.69438 30.1949 1.51876 24.75H3.75001C3.94892 24.75 4.13969 24.671 4.28034 24.5303C4.42099 24.3897 4.50001 24.1989 4.50001 24C4.50001 23.8011 4.42099 23.6103 4.28034 23.4697C4.13969 23.329 3.94892 23.25 3.75001 23.25H1.51876C1.69633 17.8055 3.85086 12.6121 7.57951 8.64075L9.00451 10.0657C9.07449 10.1352 9.15747 10.1903 9.24871 10.2277C9.33995 10.2651 9.43767 10.2842 9.53629 10.2838C9.6349 10.2835 9.73248 10.2637 9.82346 10.2256C9.91443 10.1876 9.99702 10.132 10.0665 10.062C10.136 9.99202 10.191 9.90904 10.2284 9.8178C10.2659 9.72656 10.2849 9.62884 10.2846 9.53022C10.2842 9.43161 10.2645 9.33402 10.2264 9.24305C10.1883 9.15207 10.1327 9.06948 10.0628 9L8.63776 7.575C12.6105 3.84732 17.8051 1.69437 23.25 1.51875V3.75C23.25 3.94891 23.329 4.13968 23.4697 4.28033C23.6103 4.42098 23.8011 4.5 24 4.5C24.1989 4.5 24.3897 4.42098 24.5303 4.28033C24.671 4.13968 24.75 3.94891 24.75 3.75V1.51875C30.1945 1.69632 35.3879 3.85085 39.3593 7.5795L37.9342 9.0045C37.7939 9.14582 37.7155 9.33711 37.7162 9.53627C37.7169 9.73544 37.7967 9.92616 37.938 10.0665C38.0793 10.2068 38.2706 10.2853 38.4698 10.2846C38.6689 10.2839 38.8597 10.2041 39 10.0627L40.425 8.63775C44.1527 12.6105 46.3056 17.805 46.4813 23.25H44.25C44.0511 23.25 43.8603 23.329 43.7197 23.4697C43.579 23.6103 43.5 23.8011 43.5 24C43.5 24.1989 43.579 24.3897 43.7197 24.5303C43.8603 24.671 44.0511 24.75 44.25 24.75H46.4813C46.3035 30.1946 44.1487 35.388 40.4198 39.3592Z" fill="white"/>
</svg>
