<svg width="16" height="16" viewBox="0 0 16 16" fill="none" xmlns="http://www.w3.org/2000/svg">
<path d="M7.99946 1.44136C10.136 1.44136 10.3885 1.44888 11.2328 1.48755C12.0126 1.52299 12.4359 1.65295 12.7184 1.7625C13.0634 1.89556 13.3768 2.09946 13.6382 2.36104C13.8997 2.62262 14.1034 2.93607 14.2362 3.2812C14.3436 3.5626 14.4757 3.98684 14.5112 4.7666C14.5498 5.60972 14.5584 5.86319 14.5584 7.99839C14.5584 10.1336 14.5498 10.3871 14.5112 11.2302C14.4757 12.0067 14.3511 12.4363 14.2362 12.7156C14.1034 13.0607 13.8997 13.3742 13.6382 13.6357C13.3768 13.8973 13.0634 14.1012 12.7184 14.2343C12.4359 14.3417 12.0126 14.4738 11.2328 14.5092C10.3885 14.5479 10.136 14.5565 7.99946 14.5565C5.86291 14.5565 5.61047 14.5479 4.76724 14.5092C3.98738 14.4738 3.56307 14.3438 3.28164 14.2343C2.93656 14.1012 2.62321 13.8973 2.36178 13.6357C2.10035 13.3742 1.89665 13.0607 1.76381 12.7156C1.65639 12.4342 1.5232 12.011 1.48775 11.2313C1.44908 10.3871 1.44156 10.1347 1.44156 7.99839C1.44156 5.86212 1.44908 5.60972 1.48775 4.7666C1.5232 3.98684 1.65425 3.5626 1.76381 3.2812C1.89724 2.93555 2.10176 2.62177 2.36415 2.36015C2.62654 2.09854 2.94094 1.89493 3.28701 1.7625C3.56845 1.6551 3.99275 1.52299 4.77261 1.48755C5.61584 1.44888 5.86935 1.44136 8.00483 1.44136H7.99946ZM8.00483 0C5.83283 0 5.55999 0.00859239 4.70708 0.0472579C4.04334 0.061279 3.38673 0.187282 2.76495 0.419951C2.23259 0.624878 1.74897 0.938848 1.34514 1.3417C0.941302 1.74456 0.626182 2.22739 0.420007 2.75921C0.186875 3.38149 0.061197 4.03885 0.0483384 4.70323C0.00859357 5.55602 0 5.82775 0 8.00054C0 10.1733 0.00859357 10.4451 0.0483384 11.2989C0.0615401 11.9622 0.187213 12.6185 0.420007 13.2397C0.62529 13.7713 0.939467 14.2541 1.34237 14.6572C1.74528 15.0602 2.22801 15.3745 2.75958 15.58C3.38129 15.8128 4.03798 15.9385 4.70171 15.9517C5.55462 15.9903 5.82746 16 7.99946 16C10.1715 16 10.4443 15.9903 11.2983 15.9517C11.962 15.9385 12.6187 15.8128 13.2404 15.58C13.772 15.3745 14.2547 15.0602 14.6576 14.6572C15.0605 14.2541 15.3747 13.7713 15.58 13.2397C15.8128 12.6185 15.9385 11.9622 15.9517 11.2989C15.9903 10.4451 16 10.1733 16 8.00054C16 5.82775 15.9903 5.55602 15.9517 4.70323C15.9386 4.03957 15.8129 3.38296 15.58 2.76136C15.3744 2.23006 15.0601 1.74755 14.6572 1.34473C14.2544 0.941906 13.7718 0.627654 13.2404 0.422098C12.6186 0.18943 11.962 0.0634272 11.2983 0.049406C10.4389 0.0107405 10.1725 0.00214813 7.99946 0.00214813L8.00483 0Z" fill="white"/>
<path d="M8.00015 3.89124C7.18777 3.89145 6.3937 4.13251 5.71834 4.58394C5.04298 5.03536 4.51666 5.67688 4.20593 6.42738C3.89519 7.17788 3.814 8.00366 3.97262 8.80029C4.13123 9.59693 4.52253 10.3287 5.09704 10.9029C5.67155 11.4772 6.40347 11.8683 7.20025 12.0267C7.99703 12.1851 8.82289 12.1037 9.57341 11.7928C10.3239 11.4819 10.9654 10.9555 11.4167 10.2801C11.868 9.60467 12.1089 8.81064 12.1089 7.99837C12.1089 7.45893 12.0026 6.92476 11.7961 6.42639C11.5896 5.92802 11.2869 5.47521 10.9054 5.09381C10.5239 4.71241 10.0709 4.4099 9.57241 4.20356C9.07392 3.99722 8.53966 3.89109 8.00015 3.89124ZM8.00015 10.6652C7.47263 10.6652 6.95695 10.5088 6.51834 10.2158C6.07972 9.92274 5.73786 9.50623 5.53599 9.01893C5.33411 8.53163 5.28129 7.99541 5.38421 7.4781C5.48712 6.96078 5.74115 6.48559 6.11416 6.11263C6.48717 5.73966 6.96242 5.48567 7.4798 5.38277C7.99719 5.27987 8.53347 5.33268 9.02084 5.53453C9.5082 5.73638 9.92476 6.07819 10.2178 6.51675C10.5109 6.95531 10.6673 7.47092 10.6673 7.99837C10.6673 8.70566 10.3863 9.38399 9.88614 9.88412C9.38594 10.3842 8.70753 10.6652 8.00015 10.6652Z" fill="white"/>
<path d="M12.2699 4.68931C12.8003 4.68931 13.2303 4.25941 13.2303 3.72911C13.2303 3.19881 12.8003 2.76892 12.2699 2.76892C11.7395 2.76892 11.3096 3.19881 11.3096 3.72911C11.3096 4.25941 11.7395 4.68931 12.2699 4.68931Z" fill="white"/>
</svg>
