<svg width="241" height="38" viewBox="0 0 241 38" fill="none" xmlns="http://www.w3.org/2000/svg">
<path fill-rule="evenodd" clip-rule="evenodd" d="M6 20.6C7.3 20.9 8.39999 21 9.29999 21C11.7 21 13.7 20.2 15.2 18.5C16.8 16.8 17.6 14.6 17.6 11.7C17.6 8.79995 16.8 6.49996 15.2 4.89996C13.6 3.19996 11.6 2.39996 9.09998 2.39996C8.19998 2.39996 7.09999 2.49995 5.89999 2.79995V20.6H6ZM0 22.1V21.5H0.799988C1.69999 21.5 2.29998 21.2 2.69998 20.7C2.89998 20.4 3 19.6 3 18.4V4.89996C3 3.59996 2.89998 2.79995 2.59998 2.49995C2.19998 1.99995 1.59999 1.79995 0.799988 1.79995H0V1.19995H8.5C11.6 1.19995 14 1.59995 15.6 2.29995C17.2 2.99995 18.5 4.19996 19.5 5.89996C20.5 7.59996 21 9.49995 21 11.6C21 14.5 20.1 16.9 18.3 18.9C16.3 21.1 13.3 22.2 9.19998 22.2H0V22.1Z" fill="#E30016"/>
<path fill-rule="evenodd" clip-rule="evenodd" d="M98.7 21.1V21.7H89.7V21.1H90.4C91.3 21.1 91.9 20.8 92.3 20.4C92.5 20.1 92.7 19.3 92.7 18V4.39999C92.7 3.29999 92.6 2.59999 92.5 2.29999C92.4 1.99999 92.2 1.79999 91.9 1.59999C91.4 1.29999 91 1.19999 90.5 1.19999H89.8V0.599991H98.8V1.19999H98C97.2 1.19999 96.5 1.49999 96.1 1.99999C95.8 2.29999 95.7 3.09999 95.7 4.39999V17.9C95.7 19 95.8 19.7 95.9 20C96 20.3 96.2 20.5 96.5 20.7C97 20.9 97.4 21.1 97.9 21.1H98.7ZM80.2 13.5L76.7 5.09999L73.1 13.5H80.2ZM80.6 14.6H72.5L71.1 17.9C70.7 18.7 70.6 19.3 70.6 19.7C70.6 20 70.7 20.3 71.1 20.5C71.4 20.7 72.1 20.9 73.1 21V21.6H66.5V21.1C67.4 20.9 67.9 20.7 68.2 20.5C68.7 20 69.3 19 69.9 17.5L77.3 0.299988H77.8L85.1 17.7C85.7 19.1 86.2 20 86.7 20.4C87.2 20.8 87.8 21 88.7 21.1V21.7H80.4V21.1C81.2 21.1 81.8 20.9 82.1 20.7C82.4 20.5 82.5 20.2 82.5 19.8C82.5 19.3 82.3 18.6 81.9 17.7L80.6 14.6ZM51.6 20.1C52.8 20.4 54 20.5 55.1 20.5C57 20.5 58.4 20.1 59.4 19.2C60.4 18.4 60.9 17.3 60.9 16.1C60.9 15.3 60.7 14.5 60.2 13.8C59.8 13.1 59 12.5 58 12C57 11.6 55.8 11.3 54.3 11.3C53.7 11.3 53.1 11.3 52.7 11.3C52.2 11.3 51.9 11.4 51.6 11.4V20.1ZM51.6 10.1C52 10.2 52.4 10.2 52.9 10.3C53.4 10.3 53.9 10.4 54.5 10.4C56 10.4 57.1 10.2 57.9 9.89999C58.7 9.59999 59.2 9.09999 59.6 8.39999C60 7.69999 60.2 6.99999 60.2 6.19999C60.2 4.99999 59.7 3.89999 58.7 3.09999C57.7 2.19999 56.2 1.79999 54.3 1.79999C53.3 1.79999 52.3 1.89999 51.5 2.09999V10.1H51.6ZM59.7 11C61.1 11.3 62.2 11.8 62.9 12.5C63.9 13.4 64.4 14.6 64.4 16C64.4 17 64.1 18 63.4 19C62.7 19.9 61.8 20.6 60.7 21.1C59.6 21.5 57.8 21.8 55.5 21.8H45.6V21.1H46.4C47.3 21.1 47.9 20.8 48.3 20.3C48.5 19.9 48.6 19.2 48.6 18V4.39999C48.6 3.09999 48.5 2.29999 48.2 1.89999C47.8 1.39999 47.2 1.19999 46.4 1.19999H45.6V0.599991H54.6C56.3 0.599991 57.6 0.699992 58.7 0.999992C60.2 1.39999 61.4 1.99999 62.2 2.99999C63 3.89999 63.4 4.99999 63.4 6.19999C63.4 7.19999 63.1 8.19999 62.4 8.99999C61.9 9.99999 60.9 10.6 59.7 11ZM37.4 1.29999V0.699989H44.8V1.29999H44C43.2 1.29999 42.5 1.59999 42.1 2.29999C41.9 2.59999 41.8 3.39999 41.8 4.49999V13C41.8 15.1 41.6 16.7 41.2 17.9C40.8 19.1 40 20.1 38.7 20.9C37.5 21.7 35.8 22.1 33.7 22.1C31.4 22.1 29.7 21.7 28.5 20.9C27.3 20.1 26.5 19 26 17.7C25.7 16.8 25.5 15.1 25.5 12.5V4.29999C25.5 2.99999 25.3 2.19999 25 1.79999C24.6 1.39999 24.1 1.19999 23.3 1.19999H22.5V0.599991H31.5V1.19999H30.7C29.8 1.19999 29.2 1.49999 28.8 1.99999C28.5 2.39999 28.4 3.09999 28.4 4.29999V13.4C28.4 14.2 28.5 15.1 28.6 16.2C28.7 17.2 29 18.1 29.4 18.7C29.8 19.3 30.4 19.8 31.1 20.2C31.8 20.6 32.7 20.8 33.8 20.8C35.2 20.8 36.4 20.5 37.5 19.9C38.6 19.3 39.3 18.5 39.7 17.6C40.1 16.7 40.3 15.1 40.3 12.9V4.39999C40.3 3.09999 40.2 2.29999 39.9 1.89999C39.5 1.39999 38.9 1.19999 38.1 1.19999H37.4V1.29999Z" fill="white"/>
<path fill-rule="evenodd" clip-rule="evenodd" d="M129.2 16.2999L129.7 16.4L127.9 22.1H111.7V21.5H112.5C113.4 21.5 114 21.2 114.4 20.6C114.6 20.3 114.7 19.5 114.7 18.2999V4.89996C114.7 3.59996 114.5 2.79995 114.3 2.49995C113.9 1.99995 113.3 1.79995 112.5 1.79995H111.7V1.19995H121.2V1.79995C120.1 1.79995 119.3 1.89995 118.9 2.09995C118.4 2.29995 118.1 2.59996 118 2.89996C117.8 3.19996 117.8 3.99995 117.8 5.29995V18.4C117.8 19.2 117.9 19.8 118 20.2C118.1 20.4 118.3 20.6 118.6 20.7C118.9 20.8 119.7 20.9 121 20.9H122.5C124.1 20.9 125.2 20.8 125.9 20.5C126.5 20.3 127.1 19.8 127.7 19.2C128.1 18.6 128.7 17.5999 129.2 16.2999Z" fill="#E30016"/>
<path fill-rule="evenodd" clip-rule="evenodd" d="M228.2 1.9V10.1H232.8C234 10.1 234.8 9.9 235.2 9.6C235.7 9.1 236 8.3 236.1 7.1H236.7V14.4H236.1C236 13.4 235.8 12.7 235.7 12.4C235.5 12 235.2 11.7 234.8 11.5C234.4 11.3 233.7 11.2 232.8 11.2H228.2V18.1C228.2 19 228.2 19.6 228.3 19.8C228.4 20 228.5 20.2 228.7 20.3C228.9 20.4 229.3 20.5 229.9 20.5H233.4C234.6 20.5 235.4 20.4 236 20.3C236.5 20.1 237 19.8 237.5 19.3C238.1 18.7 238.8 17.7 239.5 16.4H240.1L238.3 21.7H222.3V21.1H223C223.5 21.1 224 21 224.4 20.8C224.7 20.6 224.9 20.4 225.1 20.1C225.2 19.8 225.3 19.1 225.3 18.1V4.4C225.3 3.1 225.2 2.3 224.9 1.9C224.5 1.5 223.9 1.3 223 1.3H222.3V0.699997H238.4L238.6 5.3H238C237.8 4.2 237.5 3.4 237.3 3C237 2.6 236.7 2.3 236.1 2.1C235.7 1.9 234.9 1.9 233.9 1.9H228.2ZM218.2 0.199997L218.7 6.8H218.2C217.7 5.2 216.9 3.9 216.1 3.1C214.8 1.9 213.2 1.3 211.3 1.3C208.6 1.3 206.6 2.4 205.2 4.5C204 6.3 203.5 8.4 203.5 10.8C203.5 12.8 203.9 14.6 204.7 16.3C205.5 17.9 206.5 19.1 207.7 19.9C209 20.7 210.2 21.1 211.6 21.1C212.4 21.1 213.1 21 213.8 20.8C214.5 20.6 215.2 20.3 215.9 19.9V13.8C215.9 12.8 215.8 12.1 215.7 11.7C215.5 11.4 215.3 11.1 215 11C214.7 10.8 214.1 10.7 213.2 10.7V10.1H221.3V10.7H220.9C220.1 10.7 219.5 11 219.3 11.5C219.1 11.9 219 12.6 219 13.7V20.1C217.8 20.7 216.6 21.2 215.5 21.5C214.4 21.8 213.1 21.9 211.7 21.9C207.6 21.9 204.6 20.6 202.5 18C200.9 16.1 200.1 13.8 200.1 11.3C200.1 9.5 200.5 7.7 201.4 6C202.4 4 203.9 2.4 205.7 1.4C207.2 0.500002 209 0.0999985 211.1 0.0999985C211.9 0.0999985 212.6 0.199995 213.2 0.299995C213.8 0.399995 214.7 0.699998 215.8 1.1C216.4 1.3 216.8 1.4 217 1.4C217.2 1.4 217.4 1.3 217.5 1.1C217.6 0.899998 217.7 0.6 217.8 0H218.2V0.199997ZM175.6 0.699997H181.3L194.1 16.4V4.4C194.1 3.1 193.9 2.3 193.7 2C193.3 1.6 192.7 1.4 191.9 1.4H191.2V0.799995H198.5V1.4H197.8C196.9 1.4 196.3 1.7 195.9 2.2C195.7 2.5 195.6 3.3 195.6 4.5V22.1H195L181.1 5.1V18C181.1 19.3 181.2 20.1 181.5 20.4C181.9 20.8 182.5 21.1 183.3 21.1H184.1V21.7H176.8V21.1H177.5C178.4 21.1 179 20.8 179.4 20.3C179.6 20 179.7 19.2 179.7 18.1V3.5C179.1 2.8 178.6 2.3 178.3 2.1C178 1.9 177.5 1.7 176.9 1.5C176.6 1.4 176.1 1.4 175.5 1.4V0.699997H175.6ZM168.3 1.3V0.699997H175.7V1.3H174.9C174.1 1.3 173.4 1.6 173 2.3C172.8 2.6 172.7 3.4 172.7 4.5V13C172.7 15.1 172.5 16.7 172.1 17.9C171.7 19.1 170.9 20.1 169.7 20.9C168.5 21.7 166.8 22.1 164.7 22.1C162.4 22.1 160.7 21.7 159.5 20.9C158.3 20.1 157.5 19 157 17.7C156.7 16.8 156.5 15.1 156.5 12.5V4.3C156.5 3 156.3 2.2 156 1.8C155.6 1.4 155.1 1.2 154.3 1.2H153.5V0.599998H162.5V1.2H161.7C160.8 1.2 160.2 1.5 159.8 2C159.5 2.4 159.4 3.1 159.4 4.3V13.4C159.4 14.2 159.5 15.1 159.6 16.2C159.7 17.2 160 18.1 160.4 18.7C160.8 19.3 161.4 19.8 162.1 20.2C162.8 20.6 163.7 20.8 164.8 20.8C166.2 20.8 167.4 20.5 168.5 19.9C169.6 19.3 170.3 18.5 170.7 17.6C171.1 16.7 171.3 15.1 171.3 12.9V4.4C171.3 3.1 171.2 2.3 170.9 1.9C170.5 1.4 169.9 1.2 169.1 1.2H168.3V1.3ZM141.7 1.4C139.8 1.4 138.3 2.1 137.2 3.5C135.8 5.2 135.1 7.7 135.1 11.1C135.1 14.5 135.8 17.1 137.3 19C138.4 20.4 139.9 21.1 141.7 21.1C143.7 21.1 145.3 20.3 146.6 18.8C147.9 17.3 148.5 14.9 148.5 11.6C148.5 8 147.8 5.3 146.4 3.6C145.2 2.1 143.6 1.4 141.7 1.4ZM141.9 0.199997C144.6 0.199997 147 1.2 148.9 3.3C150.9 5.4 151.9 7.9 151.9 11C151.9 14.2 150.9 16.8 148.9 18.9C146.9 21 144.5 22 141.6 22C138.7 22 136.3 21 134.3 18.9C132.3 16.9 131.4 14.2 131.4 11C131.4 7.7 132.5 5 134.8 2.9C136.9 1.2 139.2 0.199997 141.9 0.199997Z" fill="white"/>
<path fill-rule="evenodd" clip-rule="evenodd" d="M171.4 30.4V33.5H171.7C172.2 33.5 172.5 33.5 172.8 33.4C173 33.3 173.2 33.1 173.4 32.9C173.5 32.7 173.6 32.4 173.6 32C173.6 31.5 173.5 31.1 173.2 30.8C172.9 30.5 172.5 30.4 172 30.4H171.4ZM171.4 33.9V35.9C171.4 36.3 171.4 36.5 171.5 36.6C171.5 36.7 171.6 36.8 171.7 36.8C171.8 36.9 172 36.9 172.4 36.9V37.1H168.8V36.9C169.1 36.9 169.4 36.9 169.5 36.8C169.6 36.7 169.7 36.7 169.7 36.6C169.7 36.5 169.8 36.3 169.8 35.9V31.3C169.8 30.9 169.8 30.7 169.7 30.6C169.7 30.5 169.6 30.4 169.5 30.4C169.4 30.3 169.2 30.3 168.8 30.3V30.1H172.1C173 30.1 173.6 30.2 174 30.3C174.4 30.4 174.7 30.6 175 31C175.3 31.3 175.4 31.7 175.4 32.1C175.4 32.6 175.2 33.1 174.8 33.4C174.6 33.6 174.2 33.8 173.8 33.9L175.5 36.3C175.7 36.6 175.9 36.8 176 36.9C176.1 37 176.3 37.1 176.5 37.1V37.3H174.3L172 34.1H171.4V33.9ZM165.1 34.7L164 32.3L162.9 34.7H165.1ZM165.3 35.1H162.8L162.5 35.8C162.4 36 162.4 36.2 162.4 36.4C162.4 36.6 162.5 36.7 162.6 36.8C162.7 36.9 162.9 36.9 163.3 36.9V37.1H160.9V36.9C161.2 36.9 161.4 36.8 161.5 36.6C161.7 36.4 161.9 36.1 162.1 35.5L164.6 29.9H164.7L167.3 35.7C167.5 36.3 167.7 36.6 167.9 36.8C168 36.9 168.2 37 168.4 37V37.2H165V37H165.1C165.4 37 165.6 37 165.7 36.9C165.8 36.8 165.8 36.8 165.8 36.7C165.8 36.6 165.8 36.6 165.8 36.5C165.8 36.5 165.7 36.3 165.6 36.1L165.3 35.1ZM156.6 33.6V36.1C156.6 36.3 156.6 36.4 156.7 36.5C156.8 36.6 156.9 36.6 157.1 36.6C157.4 36.6 157.6 36.5 157.9 36.4C158.1 36.3 158.3 36.1 158.4 35.9C158.5 35.7 158.6 35.4 158.6 35.1C158.6 34.8 158.5 34.5 158.4 34.2C158.3 33.9 158.1 33.8 157.8 33.6C157.5 33.7 157.1 33.6 156.6 33.6ZM156.6 33.2C157.1 33.2 157.5 33.1 157.7 33C157.9 32.9 158.1 32.7 158.2 32.5C158.3 32.3 158.4 32 158.4 31.7C158.4 31.4 158.3 31.1 158.2 30.9C158.1 30.7 157.9 30.5 157.7 30.4C157.5 30.3 157.1 30.2 156.6 30.3V33.2ZM158.5 33.4C159.2 33.6 159.7 33.7 159.9 34C160.3 34.3 160.5 34.7 160.5 35.2C160.5 35.7 160.3 36.2 159.9 36.5C159.4 36.9 158.6 37.1 157.6 37.1H154V36.9C154.3 36.9 154.6 36.9 154.7 36.8C154.8 36.7 154.9 36.7 154.9 36.6C154.9 36.5 155 36.3 155 35.9V31.3C155 30.9 155 30.7 154.9 30.6C154.9 30.5 154.8 30.4 154.6 30.4C154.5 30.3 154.3 30.3 153.9 30.3V30.1H157.3C158.1 30.1 158.7 30.2 159 30.3C159.3 30.4 159.6 30.7 159.8 30.9C160 31.2 160.1 31.5 160.1 31.8C160.1 32.1 160 32.4 159.7 32.7C159.5 33 159.1 33.2 158.5 33.4ZM146.8 30.4V33.3H146.9C147.3 33.3 147.7 33.2 147.9 32.9C148.1 32.6 148.2 32.2 148.3 31.7H148.5V35.4H148.3C148.3 35 148.2 34.7 148 34.4C147.9 34.1 147.7 34 147.5 33.9C147.3 33.8 147.1 33.8 146.7 33.8V35.8C146.7 36.2 146.7 36.4 146.7 36.5C146.7 36.6 146.8 36.7 146.9 36.7C147 36.8 147.1 36.8 147.3 36.8H147.7C148.4 36.8 148.9 36.6 149.3 36.3C149.7 36 150 35.5 150.2 34.9H150.4L150.1 37.2H144V37H144.2C144.4 37 144.6 37 144.7 36.9C144.8 36.9 144.9 36.8 144.9 36.6C144.9 36.5 145 36.3 145 35.9V31.2C145 30.9 145 30.7 145 30.6C145 30.5 144.9 30.4 144.8 30.3C144.7 30.2 144.5 30.2 144.3 30.2H144.1V30H150V32.1H149.8C149.7 31.6 149.6 31.2 149.4 31C149.2 30.8 149 30.6 148.6 30.5C148.4 30.4 148 30.4 147.5 30.4H146.8ZM138.9 34.7L140.8 30H143.7V30.2H143.5C143.3 30.2 143.1 30.2 143 30.3C142.9 30.3 142.8 30.4 142.8 30.5C142.8 30.6 142.7 30.8 142.7 31.2V35.9C142.7 36.3 142.7 36.5 142.8 36.6C142.8 36.7 142.9 36.8 143 36.8C143.1 36.9 143.3 36.9 143.5 36.9H143.7V37.1H140V36.9H140.2C140.4 36.9 140.6 36.9 140.7 36.8C140.8 36.8 140.9 36.7 140.9 36.5C140.9 36.4 141 36.2 141 35.8V30.6L138.3 37.1H138.2L135.4 30.7V35.7C135.4 36.1 135.4 36.3 135.4 36.3C135.4 36.5 135.5 36.6 135.7 36.7C135.8 36.8 136.1 36.9 136.4 36.9V37.1H134V36.9H134.1C134.3 36.9 134.4 36.9 134.5 36.8C134.6 36.7 134.7 36.7 134.8 36.6C134.9 36.5 134.9 36.4 135 36.2C135 36.2 135 36 135 35.7V31.2C135 30.8 135 30.6 134.9 30.5C134.9 30.4 134.8 30.3 134.7 30.3C134.6 30.2 134.4 30.2 134.2 30.2H134V30H136.9L138.9 34.7ZM130.4 34.7L129.3 32.3L128.2 34.7H130.4ZM130.5 35.1H128L127.7 35.8C127.6 36 127.6 36.2 127.6 36.4C127.6 36.6 127.7 36.7 127.8 36.8C127.9 36.9 128.1 36.9 128.5 36.9V37.1H126.1V36.9C126.4 36.9 126.6 36.8 126.7 36.6C126.9 36.4 127.1 36.1 127.3 35.5L129.8 29.9H129.9L132.5 35.7C132.7 36.3 132.9 36.6 133.1 36.8C133.2 36.9 133.4 37 133.6 37V37.2H130.3V37H130.4C130.7 37 130.9 37 131 36.9C131.1 36.8 131.1 36.8 131.1 36.7C131.1 36.6 131.1 36.6 131.1 36.5C131.1 36.5 131 36.3 130.9 36.1L130.5 35.1ZM125.2 29.9V32.4H125C124.8 31.7 124.4 31.2 123.9 30.9C123.4 30.5 122.9 30.4 122.4 30.4C121.9 30.4 121.4 30.5 121.1 30.8C120.7 31.1 120.5 31.5 120.3 32C120.2 32.5 120.1 33.1 120.1 33.6C120.1 34.3 120.2 34.9 120.3 35.4C120.5 35.9 120.7 36.3 121.1 36.5C121.5 36.7 121.9 36.9 122.4 36.9C122.6 36.9 122.7 36.9 122.9 36.8C123.1 36.8 123.3 36.7 123.5 36.6V35.1C123.5 34.8 123.5 34.6 123.4 34.5C123.4 34.4 123.3 34.3 123.2 34.3C123.1 34.2 122.9 34.2 122.8 34.2H122.6V34H126V34.2C125.7 34.2 125.6 34.3 125.5 34.3C125.4 34.4 125.3 34.4 125.3 34.6C125.3 34.7 125.3 34.8 125.3 35.1V36.6C124.8 36.8 124.4 37 123.9 37.1C123.4 37.2 122.9 37.3 122.4 37.3C121.7 37.3 121.2 37.2 120.7 37C120.3 36.8 119.9 36.6 119.5 36.3C119.2 36 118.9 35.7 118.7 35.3C118.5 34.8 118.3 34.3 118.3 33.7C118.3 32.6 118.7 31.7 119.4 31C120.1 30.3 121.1 29.9 122.2 29.9C122.6 29.9 122.9 29.9 123.1 30C123.3 30 123.5 30.1 123.8 30.2C124.1 30.3 124.3 30.4 124.4 30.4C124.5 30.4 124.6 30.4 124.7 30.3C124.8 30.2 124.9 30.1 124.9 29.9H125.2ZM105.2 30.4V33.3H105.3C105.7 33.3 106.1 33.2 106.3 32.9C106.5 32.6 106.6 32.2 106.7 31.7H106.9V35.4H106.7C106.7 35 106.6 34.7 106.4 34.4C106.3 34.1 106.1 34 105.9 33.9C105.7 33.8 105.5 33.8 105.1 33.8V35.8C105.1 36.2 105.1 36.4 105.1 36.5C105.1 36.6 105.2 36.7 105.3 36.7C105.4 36.8 105.5 36.8 105.7 36.8H106.1C106.8 36.8 107.3 36.6 107.7 36.3C108.1 36 108.4 35.5 108.6 34.9H108.8L108.5 37.2H102.4V37H102.6C102.8 37 103 37 103.1 36.9C103.2 36.9 103.3 36.8 103.3 36.6C103.3 36.5 103.4 36.3 103.4 35.9V31.2C103.4 30.9 103.4 30.7 103.4 30.6C103.4 30.5 103.3 30.4 103.2 30.3C103.1 30.2 102.9 30.2 102.7 30.2H102.5V30H108.4V32.1H108.3C108.2 31.6 108.1 31.2 107.9 31C107.7 30.8 107.5 30.6 107.1 30.5C106.9 30.4 106.5 30.4 106 30.4H105.2ZM98.7002 30.4V33.3H98.9002C99.2002 33.3 99.5002 33.3 99.7002 33.2C99.9002 33.1 100.1 32.9 100.2 32.7C100.3 32.5 100.4 32.2 100.5 31.8H100.7V35.4H100.5C100.4 34.7 100.3 34.3 100 34.1C99.7002 33.9 99.4002 33.8 99.0002 33.8H98.8002V36C98.8002 36.4 98.8002 36.6 98.9002 36.7C98.9002 36.8 99.0002 36.9 99.1002 36.9C99.2002 37 99.4002 37 99.6002 37H99.8002V37.2H96.1002V37H96.3002C96.5002 37 96.7002 37 96.8002 36.9C96.9002 36.9 97.0002 36.8 97.0002 36.6C97.0002 36.5 97.1002 36.3 97.1002 35.9V31.2C97.1002 30.8 97.1002 30.6 97.0002 30.5C97.0002 30.4 96.9002 30.3 96.8002 30.3C96.7002 30.2 96.5002 30.2 96.3002 30.2H96.1002V30H102.1V32H101.9C101.9 31.5 101.7 31.2 101.5 30.9C101.3 30.7 101 30.5 100.6 30.4C100.4 30.3 100 30.3 99.4002 30.3H98.7002V30.4ZM92.3002 34.7L91.2002 32.3L90.1002 34.7H92.3002ZM92.5002 35.1H90.0002L89.7002 35.8C89.6002 36 89.6002 36.2 89.6002 36.4C89.6002 36.6 89.7002 36.7 89.8002 36.8C89.9002 36.9 90.1002 36.9 90.5002 36.9V37.1H88.1002V36.9C88.4002 36.9 88.6002 36.8 88.7002 36.6C88.9002 36.4 89.1002 36.1 89.3002 35.5L91.8002 29.9H91.9002L94.4002 35.7C94.6002 36.3 94.8002 36.6 95.0002 36.8C95.1002 36.9 95.3002 37 95.5002 37V37.2H92.3002V37H92.4002C92.7002 37 92.9002 37 93.0002 36.9C93.1002 36.8 93.1002 36.8 93.1002 36.7C93.1002 36.6 93.1002 36.6 93.1002 36.5C93.1002 36.5 93.0002 36.3 92.9002 36.1L92.5002 35.1ZM87.5002 29.9V32.4H87.3002C87.1002 31.8 86.9002 31.3 86.4002 30.9C85.9002 30.5 85.5002 30.4 85.0002 30.4C84.6002 30.4 84.2002 30.5 83.8002 30.8C83.4002 31.1 83.2002 31.4 83.0002 31.8C82.8002 32.3 82.7002 32.9 82.7002 33.6C82.7002 34.2 82.8002 34.8 82.9002 35.3C83.1002 35.8 83.3002 36.2 83.7002 36.5C84.0002 36.8 84.5002 36.9 85.0002 36.9C85.4002 36.9 85.9002 36.8 86.2002 36.6C86.6002 36.4 87.0002 36.1 87.4002 35.6V36.2C87.0002 36.6 86.6002 36.9 86.2002 37.1C85.8002 37.3 85.3002 37.4 84.7002 37.4C83.9002 37.4 83.3002 37.2 82.7002 36.9C82.1002 36.6 81.7002 36.2 81.3002 35.6C81.0002 35 80.8002 34.4 80.8002 33.8C80.8002 33.1 81.0002 32.5 81.3002 31.9C81.7002 31.3 82.1002 30.8 82.7002 30.5C83.3002 30.2 83.9002 30 84.6002 30C85.1002 30 85.6002 30.1 86.2002 30.3C86.5002 30.4 86.7002 30.5 86.8002 30.5C86.9002 30.5 87.0002 30.5 87.1002 30.4C87.2002 30.3 87.2002 30.2 87.3002 30H87.5002V29.9ZM73.9002 30.2V30H77.7002V30.2H77.5002C77.3002 30.2 77.1002 30.2 77.0002 30.3C76.9002 30.4 76.8002 30.4 76.8002 30.6C76.8002 30.7 76.7002 30.9 76.7002 31.3V34.8C76.7002 35.5 76.6002 36 76.5002 36.3C76.4002 36.6 76.1002 36.9 75.8002 37.1C75.5002 37.3 75.0002 37.4 74.5002 37.4C73.9002 37.4 73.4002 37.2 73.1002 36.9C72.7002 36.6 72.5002 36.2 72.5002 35.9C72.5002 35.7 72.6002 35.5 72.7002 35.3C72.9002 35.1 73.0002 35.1 73.3002 35.1C73.5002 35.1 73.7002 35.2 73.8002 35.3C73.9002 35.4 74.0002 35.6 74.0002 35.8C74.0002 35.9 74.0002 36 74.0002 36.1C74.0002 36.1 73.9002 36.2 73.8002 36.4C73.7002 36.5 73.7002 36.6 73.7002 36.7C73.7002 36.8 73.7002 36.9 73.8002 36.9C73.9002 37 74.1002 37 74.3002 37C74.4002 37 74.6002 37 74.7002 36.9C74.8002 36.8 74.9002 36.7 74.9002 36.5C74.9002 36.3 75.0002 35.9 75.0002 35.1V31.3C75.0002 30.9 75.0002 30.7 74.9002 30.6C74.9002 30.5 74.8002 30.4 74.7002 30.4C74.6002 30.3 74.4002 30.3 74.2002 30.3H73.9002V30.2ZM67.4002 30.4V35.9C67.4002 36.2 67.4002 36.4 67.4002 36.4C67.4002 36.5 67.5002 36.5 67.5002 36.6C67.6002 36.6 67.7002 36.7 67.9002 36.7C68.5002 36.7 68.9002 36.5 69.2002 36.1C69.6002 35.6 69.8002 34.7 69.8002 33.6C69.8002 32.7 69.7002 32 69.4002 31.4C69.2002 31 68.9002 30.7 68.5002 30.5C68.4002 30.5 68.0002 30.4 67.4002 30.4ZM64.8002 37.1V36.9H65.0002C65.2002 36.9 65.4002 36.9 65.5002 36.8C65.6002 36.7 65.7002 36.6 65.7002 36.5C65.7002 36.4 65.7002 36.2 65.7002 35.8V31.1C65.7002 30.7 65.7002 30.5 65.6002 30.4C65.6002 30.3 65.5002 30.2 65.4002 30.2C65.3002 30.1 65.1002 30.1 64.9002 30.1H64.7002V29.9H67.9002C68.7002 29.9 69.4002 30 69.9002 30.2C70.5002 30.5 71.0002 30.9 71.3002 31.5C71.6002 32.1 71.8002 32.7 71.8002 33.4C71.8002 33.9 71.7002 34.4 71.6002 34.8C71.4002 35.2 71.2002 35.6 71.0002 35.8C70.7002 36.1 70.5002 36.3 70.1002 36.5C69.8002 36.7 69.4002 36.8 68.9002 36.9C68.7002 36.9 68.4002 37 67.9002 37H64.8002V37.1Z" fill="white"/>
<path fill-rule="evenodd" clip-rule="evenodd" d="M115.1 29.9L112.8 37.3H112.1L114.5 29.9H115.1Z" fill="#E30016"/>
<path d="M210.3 33.1H185.3V34.1H210.3V33.1Z" fill="white"/>
<path d="M55.9004 33.1H30.9004V34.1H55.9004V33.1Z" fill="white"/>
</svg>
