<svg width="48" height="48" viewBox="0 0 48 48" fill="none" xmlns="http://www.w3.org/2000/svg">
<path d="M19.9992 4.00049C11.1621 4.00049 4 11.1635 4 19.9997C4 28.8377 11.1621 35.9999 19.9992 35.9999C28.8373 35.9999 35.9994 28.8377 35.9994 19.9997C35.9994 11.1635 28.8373 4.00049 19.9992 4.00049ZM19.9992 32C13.3827 32 7.99947 26.6171 7.99947 19.9997C7.99947 13.3832 13.3827 7.99996 19.9992 7.99996C26.6167 7.99996 31.9995 13.3832 31.9995 19.9997C31.9995 26.6171 26.6167 32 19.9992 32Z" fill="white"/>
<path d="M19.9998 16.0001C17.793 16.0001 16.0004 17.7927 16.0004 19.9996H12C12 15.5872 15.5875 11.9998 19.9998 11.9998V16.0001Z" fill="white"/>
<path d="M30.8959 28.0676L28.0674 30.8961L41.1672 43.9996L43.9993 41.1738L30.8959 28.0676Z" fill="white"/>
<path d="M4.00038 43.9996V35.9998H0V48H11.9998V43.9996H4.00038Z" fill="#E42024"/>
<path d="M43.9998 4.00038V11.9998H48.0002V0H36V4.00038H43.9998Z" fill="#E42024"/>
</svg>
