<svg width="16" height="10" viewBox="0 0 16 10" fill="none" xmlns="http://www.w3.org/2000/svg">
<path d="M8.80798 10C3.41147 10 0.129676 6.24 0 0H2.74314C2.83292 4.59 4.91771 6.53 6.51372 6.93V0H9.12718V3.96C10.6733 3.79 12.2793 1.99 12.818 0H15.4115C15.2128 1.02117 14.8076 1.99073 14.2209 2.84893C13.6341 3.70713 12.8783 4.43579 12 4.99C12.9793 5.49807 13.8413 6.2065 14.5303 7.0695C15.2193 7.93249 15.72 8.93084 16 10H13.1671C12.5686 8.1 11.1022 6.63 9.12718 6.43V10H8.82793H8.80798Z" fill="white"/>
</svg>
